<svg xmlns="http://www.w3.org/2000/svg" xmlns:xlink="http://www.w3.org/1999/xlink" width="1366" zoomAndPan="magnify" viewBox="0 0 1024.5 576" height="768" preserveAspectRatio="xMidYMid meet" version="1.0"><defs><clipPath id="e83bcb9bdf"><path d="M 402 478 L 513 478 L 513 575.859375 L 402 575.859375 Z M 402 478 " clip-rule="nonzero"/></clipPath><clipPath id="79a2631e92"><path d="M 452 478 L 513 478 L 513 575.859375 L 452 575.859375 Z M 452 478 " clip-rule="nonzero"/></clipPath><clipPath id="d1f5986f59"><path d="M 517 452 L 614 452 L 614 575.859375 L 517 575.859375 Z M 517 452 " clip-rule="nonzero"/></clipPath><clipPath id="643d327e66"><path d="M 588 472 L 614 472 L 614 575.859375 L 588 575.859375 Z M 588 472 " clip-rule="nonzero"/></clipPath><clipPath id="2fba2ba737"><path d="M 298 471 L 409 471 L 409 575.859375 L 298 575.859375 Z M 298 471 " clip-rule="nonzero"/></clipPath><clipPath id="e0afa93d27"><path d="M 299 486 L 409 486 L 409 575.859375 L 299 575.859375 Z M 299 486 " clip-rule="nonzero"/></clipPath><clipPath id="f94a47ee32"><path d="M 188 493 L 296 493 L 296 575.859375 L 188 575.859375 Z M 188 493 " clip-rule="nonzero"/></clipPath><clipPath id="a618f4c050"><path d="M 238 493 L 296 493 L 296 575.859375 L 238 575.859375 Z M 238 493 " clip-rule="nonzero"/></clipPath><clipPath id="e0bc619e11"><path d="M 98 467 L 195 467 L 195 575.859375 L 98 575.859375 Z M 98 467 " clip-rule="nonzero"/></clipPath><clipPath id="bbf774202d"><path d="M 169 487 L 195 487 L 195 575.859375 L 169 575.859375 Z M 169 487 " clip-rule="nonzero"/></clipPath><clipPath id="50d762d609"><path d="M 0 486 L 94 486 L 94 575.859375 L 0 575.859375 Z M 0 486 " clip-rule="nonzero"/></clipPath><clipPath id="ebd8ac3371"><path d="M 72 509 L 94 509 L 94 575.859375 L 72 575.859375 Z M 72 509 " clip-rule="nonzero"/></clipPath><clipPath id="a579ae5aa5"><path d="M 616 466 L 718 466 L 718 575.859375 L 616 575.859375 Z M 616 466 " clip-rule="nonzero"/></clipPath><clipPath id="b7bec5767a"><path d="M 918 469 L 1024 469 L 1024 575.859375 L 918 575.859375 Z M 918 469 " clip-rule="nonzero"/></clipPath><clipPath id="293a828967"><path d="M 968 469 L 1024 469 L 1024 575.859375 L 968 575.859375 Z M 968 469 " clip-rule="nonzero"/></clipPath><clipPath id="7643d3f0b4"><path d="M 828 443 L 925 443 L 925 575.859375 L 828 575.859375 Z M 828 443 " clip-rule="nonzero"/></clipPath><clipPath id="05734ab82c"><path d="M 899 463 L 925 463 L 925 575.859375 L 899 575.859375 Z M 899 463 " clip-rule="nonzero"/></clipPath><clipPath id="d72a620e49"><path d="M 730 462 L 824 462 L 824 575.859375 L 730 575.859375 Z M 730 462 " clip-rule="nonzero"/></clipPath><clipPath id="a407524ae2"><path d="M 802 485 L 824 485 L 824 575.859375 L 802 575.859375 Z M 802 485 " clip-rule="nonzero"/></clipPath></defs><g clip-path="url(#e83bcb9bdf)"><path fill="#a29cbe" d="M 512.410156 675.449219 C 507.449219 648.226562 499.886719 622.953125 492.539062 595.175781 C 488.863281 581.25 487.996094 569.765625 489.9375 560.738281 C 493.972656 542.023438 505.785156 526.324219 497.867188 506.292969 C 493.945312 496.378906 487.355469 493.351562 478.09375 497.203125 C 479.039062 476.390625 461.648438 471.359375 452.277344 489.320312 C 444.226562 470.007812 421.617188 477.300781 427.8125 506.441406 C 414.34375 495.511719 401.308594 508.824219 402.359375 525.570312 C 402.964844 535.222656 406.46875 547.964844 412.867188 563.789062 C 419.417969 577.46875 421.957031 592.503906 420.484375 608.894531 C 418.496094 631.082031 414.238281 652.640625 411.230469 675.449219 Z M 512.410156 675.449219 " fill-opacity="1" fill-rule="evenodd"/></g><path fill="#fc9495" d="M 417.480469 511.332031 C 421.089844 511.332031 424.003906 514.800781 424.003906 519.085938 C 424.003906 523.359375 421.089844 526.828125 417.480469 526.828125 C 413.882812 526.828125 410.960938 523.359375 410.960938 519.085938 C 410.960938 514.800781 413.882812 511.332031 417.480469 511.332031 Z M 417.480469 511.332031 " fill-opacity="1" fill-rule="evenodd"/><path fill="#fc9495" d="M 440.445312 484.429688 C 444.574219 484.429688 447.921875 488.503906 447.921875 493.535156 C 447.921875 498.566406 444.574219 502.640625 440.445312 502.640625 C 436.320312 502.640625 432.980469 498.566406 432.980469 493.535156 C 432.980469 488.503906 436.320312 484.429688 440.445312 484.429688 Z M 440.445312 484.429688 " fill-opacity="1" fill-rule="evenodd"/><path fill="#fc9495" d="M 442.191406 521.539062 C 442.214844 523.386719 439.15625 522.648438 437.472656 523.019531 C 434.4375 523.699219 431.75 525.546875 430.039062 528.234375 C 425.957031 534.667969 429 544.476562 436.984375 545.542969 C 439.890625 545.925781 442.796875 544.972656 444.886719 542.976562 C 447.0625 540.914062 446.109375 541.007812 447.417969 543.117188 C 449.101562 545.8125 451.71875 547.175781 455.257812 547.207031 C 458.867188 547.234375 461.46875 545.605469 463.054688 542.328125 C 463.773438 540.835938 462.59375 540.097656 464.945312 540.980469 C 467.210938 541.832031 469.5 542.09375 471.839844 541.769531 C 475.015625 541.191406 477.796875 539.289062 479.507812 536.550781 C 482.84375 531.199219 481.414062 523.765625 475.023438 521.632812 C 472.300781 520.730469 469.316406 521.140625 466.949219 522.753906 C 466.359375 523.125 465.996094 523.125 465.863281 522.753906 C 465.863281 515.925781 460.703125 510.820312 453.820312 510.984375 C 447.851562 511.113281 442.101562 515.554688 442.191406 521.539062 Z M 442.191406 521.539062 " fill-opacity="1" fill-rule="evenodd"/><g clip-path="url(#79a2631e92)"><path fill="#908eb3" d="M 486.390625 649.839844 C 488.300781 658.042969 490.027344 666.585938 491.578125 675.449219 L 512.410156 675.449219 C 507.449219 648.226562 499.886719 622.953125 492.539062 595.175781 C 488.863281 581.25 487.996094 569.765625 489.9375 560.738281 C 493.972656 542.023438 505.785156 526.324219 497.867188 506.292969 C 493.945312 496.378906 487.355469 493.351562 478.09375 497.203125 C 479.039062 476.390625 461.648438 471.359375 452.277344 489.320312 C 455.804688 486.605469 468.847656 483.613281 473.203125 502.640625 C 495.125 498.78125 477.988281 548.761719 474.769531 572.167969 C 471.519531 595.851562 480.996094 626.683594 486.390625 649.839844 Z M 486.390625 649.839844 " fill-opacity="1" fill-rule="evenodd"/></g><path fill="#fc9495" d="M 465.726562 483.613281 C 469.101562 483.613281 471.839844 486.960938 471.839844 491.089844 C 471.839844 495.21875 469.101562 498.554688 465.726562 498.554688 C 462.351562 498.554688 459.613281 495.21875 459.613281 491.089844 C 459.613281 486.960938 462.351562 483.613281 465.726562 483.613281 Z M 465.726562 483.613281 " fill-opacity="1" fill-rule="evenodd"/><path fill="#fc9495" d="M 485.289062 498.832031 C 488.371094 498.832031 490.867188 502.058594 490.867188 506.03125 C 490.867188 510.011719 488.371094 513.238281 485.289062 513.238281 C 482.222656 513.238281 479.722656 510.011719 479.722656 506.03125 C 479.722656 502.058594 482.222656 498.832031 485.289062 498.832031 Z M 485.289062 498.832031 " fill-opacity="1" fill-rule="evenodd"/><path fill="#4b423d" d="M 578.828125 458.523438 C 574.121094 457.074219 571.769531 456.347656 571.769531 456.347656 C 572.492188 453.242188 573.183594 450.980469 573.765625 449.503906 C 575.628906 444.777344 577.417969 445.921875 577.929688 450.476562 C 578.527344 455.84375 578.828125 458.523438 578.828125 458.523438 Z M 578.828125 458.523438 " fill-opacity="1" fill-rule="evenodd"/><path fill="#4b423d" d="M 542.734375 459.9375 C 547.445312 458.488281 549.796875 457.761719 549.796875 457.761719 C 549.074219 454.65625 548.382812 452.390625 547.800781 450.917969 C 545.925781 446.191406 544.148438 447.335938 543.636719 451.890625 C 543.039062 457.257812 542.734375 459.9375 542.734375 459.9375 Z M 542.734375 459.9375 " fill-opacity="1" fill-rule="evenodd"/><path fill="#4b423d" d="M 522.789062 482.789062 C 527.5 481.339844 529.847656 480.613281 529.847656 480.613281 C 529.128906 477.507812 528.433594 475.246094 527.855469 473.769531 C 525.988281 469.042969 524.203125 470.1875 523.691406 474.742188 C 523.09375 480.109375 522.789062 482.789062 522.789062 482.789062 Z M 522.789062 482.789062 " fill-opacity="1" fill-rule="evenodd"/><path fill="#4b423d" d="M 605.347656 478.714844 C 600.640625 477.265625 598.289062 476.535156 598.289062 476.535156 C 599.011719 473.433594 599.703125 471.167969 600.285156 469.695312 C 602.15625 464.96875 603.9375 466.113281 604.449219 470.664062 C 605.046875 476.035156 605.347656 478.714844 605.347656 478.714844 Z M 605.347656 478.714844 " fill-opacity="1" fill-rule="evenodd"/><g clip-path="url(#d1f5986f59)"><path fill="#bd9c7d" d="M 517.820312 495.972656 C 516.667969 510.089844 522.632812 523.453125 526.335938 536.734375 C 529.867188 549.402344 531.367188 564.632812 530.828125 582.410156 C 529.234375 603.164062 525.269531 634.175781 518.929688 675.449219 L 613.683594 675.449219 C 612.332031 636.753906 610.519531 591.152344 602.574219 553.652344 C 598.046875 532.238281 607.5 525.726562 609.164062 509.03125 C 610.578125 494.871094 610.796875 467.621094 589.488281 472.730469 C 587.570312 473.554688 586.757812 473.1875 587.035156 471.636719 C 587.042969 461.75 583.902344 455.730469 577.605469 453.5625 C 570.269531 451.046875 564.503906 453.804688 561.390625 460.996094 C 561.070312 461.984375 560.703125 462.078125 560.296875 461.265625 C 554.289062 448.402344 533.820312 453.113281 537.109375 478.730469 C 537.132812 480.640625 536.5 481.183594 535.199219 480.359375 C 524.742188 471.628906 518.53125 487.265625 517.820312 495.972656 Z M 517.820312 495.972656 " fill-opacity="1" fill-rule="evenodd"/></g><path fill="#4b423d" d="M 552.109375 514.738281 C 551.019531 506.285156 554.84375 497.28125 566.308594 497.921875 C 574.890625 498.398438 577.484375 506.285156 577.214844 513.109375 C 581.5 511.644531 586.246094 513.152344 588.890625 516.828125 C 591.535156 520.507812 591.464844 525.484375 588.714844 529.082031 C 585.96875 532.683594 581.179688 534.0625 576.9375 532.472656 C 574.859375 535.257812 571.605469 536.914062 568.136719 536.964844 C 564.667969 537.019531 561.371094 535.464844 559.203125 532.75 C 555.804688 535.476562 551.050781 535.726562 547.382812 533.367188 C 543.722656 531.007812 541.972656 526.578125 543.046875 522.355469 C 544.125 518.128906 547.765625 515.070312 552.109375 514.738281 Z M 552.109375 514.738281 " fill-opacity="1" fill-rule="evenodd"/><path fill="#4b423d" d="M 594.535156 481.183594 C 598.53125 481.183594 601.769531 485.765625 601.769531 491.417969 C 601.769531 497.066406 598.53125 501.644531 594.535156 501.644531 C 590.546875 501.644531 587.3125 497.066406 587.3125 491.417969 C 587.3125 485.765625 590.546875 481.183594 594.535156 481.183594 Z M 594.535156 481.183594 " fill-opacity="1" fill-rule="evenodd"/><path fill="#4b423d" d="M 573.800781 462.355469 C 577.796875 462.355469 581.03125 466.9375 581.03125 472.589844 C 581.03125 478.238281 577.796875 482.824219 573.800781 482.824219 C 569.8125 482.824219 566.574219 478.238281 566.574219 472.589844 C 566.574219 466.9375 569.808594 462.355469 573.800781 462.355469 Z M 573.800781 462.355469 " fill-opacity="1" fill-rule="evenodd"/><path fill="#4b423d" d="M 550.0625 463.449219 C 554.0625 463.449219 557.296875 468.027344 557.296875 473.683594 C 557.296875 479.328125 554.0625 483.910156 550.0625 483.910156 C 546.074219 483.910156 542.832031 479.328125 542.832031 473.683594 C 542.832031 468.027344 546.074219 463.449219 550.0625 463.449219 Z M 550.0625 463.449219 " fill-opacity="1" fill-rule="evenodd"/><path fill="#4b423d" d="M 534.238281 487.1875 C 538.234375 487.1875 541.46875 491.765625 541.46875 497.421875 C 541.46875 503.066406 538.234375 507.644531 534.238281 507.644531 C 530.246094 507.644531 527.011719 503.066406 527.011719 497.421875 C 527.011719 491.765625 530.246094 487.1875 534.238281 487.1875 Z M 534.238281 487.1875 " fill-opacity="1" fill-rule="evenodd"/><g clip-path="url(#643d327e66)"><path fill="#b39477" d="M 596.554688 675.449219 L 589.21875 589.226562 C 587.25 563.367188 589.886719 542.292969 597.128906 526.003906 C 603.207031 512.320312 614.003906 478.617188 593.425781 472.132812 C 610.761719 471.160156 610.484375 495.808594 609.164062 509.03125 C 607.5 525.726562 598.046875 532.242188 602.574219 553.652344 C 610.519531 591.152344 612.332031 636.753906 613.683594 675.449219 Z M 596.554688 675.449219 " fill-opacity="1" fill-rule="evenodd"/></g><g clip-path="url(#2fba2ba737)"><path fill="#3c3b4b" d="M 408.6875 675.449219 C 406.21875 654.566406 400.335938 632.105469 391.050781 608.054688 C 384.199219 587.675781 382.167969 570.503906 384.953125 556.539062 C 388.066406 540.964844 399.714844 527.070312 395.144531 508.996094 C 394.570312 506.726562 393.496094 504.9375 394.242188 502.519531 C 401.601562 481.523438 380.320312 478.652344 374.035156 488.425781 C 370.546875 469.382812 350.238281 464.914062 344.261719 484.707031 C 331.800781 466.09375 313.667969 480.871094 315.816406 496.664062 C 301.351562 492.304688 292.992188 513.566406 301.734375 524.582031 C 301.300781 544.9375 310.457031 550.78125 313.433594 567.171875 C 314.96875 575.664062 315.148438 586.191406 313.960938 598.75 C 307.519531 629.449219 303.789062 655.015625 302.75 675.449219 Z M 408.6875 675.449219 " fill-opacity="1" fill-rule="evenodd"/></g><path fill="#fc9495" d="M 335.035156 522.371094 C 332.753906 518.25 333.171875 513.109375 336.199219 509.386719 C 339.511719 505.3125 345.136719 503.960938 349.941406 506.082031 C 354.296875 508 356.992188 512.355469 356.878906 517.011719 C 356.820312 519.691406 358.277344 520.558594 360.609375 519.648438 C 364.589844 518.078125 369.179688 519.117188 372.089844 522.335938 C 375.238281 525.804688 375.671875 530.964844 373.140625 534.910156 C 370.609375 538.855469 365.753906 540.617188 361.277344 539.203125 C 359.371094 543.800781 355.164062 547.027344 350.230469 547.6875 C 345.304688 548.34375 340.394531 546.324219 337.351562 542.394531 C 337.046875 542.8125 336.335938 543.339844 335.226562 543.992188 C 331.269531 546.296875 326.242188 545.578125 323.09375 542.257812 C 319.9375 538.925781 319.484375 533.871094 322 530.046875 C 324.28125 526.550781 328.488281 524.910156 332.46875 525.832031 C 335.433594 526.515625 336.675781 525.34375 335.035156 522.371094 Z M 335.035156 522.371094 " fill-opacity="1" fill-rule="evenodd"/><path fill="#8e8290" d="M 320.605469 522.1875 C 316.832031 525.355469 314.941406 526.933594 314.941406 526.933594 C 316.804688 529.515625 318.324219 531.339844 319.433594 532.464844 C 322.980469 536.109375 324.1875 534.355469 322.894531 529.960938 C 321.367188 524.78125 320.605469 522.1875 320.605469 522.1875 Z M 320.605469 522.1875 " fill-opacity="1" fill-rule="evenodd"/><path fill="#8e8290" d="M 341.148438 515.632812 C 336.492188 517.226562 334.160156 518.027344 334.160156 518.027344 C 334.972656 521.105469 335.738281 523.351562 336.371094 524.800781 C 338.375 529.472656 340.125 528.277344 340.5 523.707031 C 340.933594 518.328125 341.148438 515.632812 341.148438 515.632812 Z M 341.148438 515.632812 " fill-opacity="1" fill-rule="evenodd"/><path fill="#8e8290" d="M 352.597656 510.777344 C 357.332031 512.121094 359.699219 512.796875 359.699219 512.796875 C 359.046875 515.917969 358.398438 518.199219 357.851562 519.683594 C 356.089844 524.453125 354.289062 523.34375 353.671875 518.804688 C 352.953125 513.445312 352.597656 510.777344 352.597656 510.777344 Z M 352.597656 510.777344 " fill-opacity="1" fill-rule="evenodd"/><path fill="#8e8290" d="M 373.644531 509.457031 C 377.851562 512.023438 379.949219 513.308594 379.949219 513.308594 C 378.492188 516.136719 377.261719 518.164062 376.332031 519.449219 C 373.367188 523.578125 371.917969 522.023438 372.542969 517.488281 C 373.269531 512.136719 373.644531 509.457031 373.644531 509.457031 Z M 373.644531 509.457031 " fill-opacity="1" fill-rule="evenodd"/><g clip-path="url(#e0afa93d27)"><path fill="#222133" d="M 389.175781 675.449219 C 386.859375 652.847656 380.035156 631.097656 375.050781 608.878906 C 368.242188 578.542969 376.816406 543.382812 382.8125 513.421875 C 376.460938 515.035156 369.820312 512.207031 366.59375 506.507812 C 365.015625 510.550781 361.382812 513.429688 357.082031 514.035156 C 352.789062 514.644531 348.496094 512.882812 345.859375 509.429688 C 345.5625 514.617188 341.851562 518.980469 336.777344 520.089844 C 331.695312 521.207031 326.5 518.804688 324.054688 514.21875 C 324.054688 514.21875 323.613281 515.902344 322.730469 519.265625 C 321.175781 523.28125 317.777344 526.289062 313.605469 527.347656 C 309.433594 528.398438 305.003906 527.375 301.734375 524.582031 C 301.351562 524.105469 301.003906 523.609375 300.691406 523.089844 C 300.285156 522.40625 299.871094 521.582031 299.453125 520.636719 L 299.453125 520.617188 C 303.597656 522.769531 308.601562 522.378906 312.367188 519.605469 C 316.121094 516.828125 317.976562 512.164062 317.144531 507.566406 C 317.371094 506.007812 318.167969 505.46875 319.539062 505.972656 C 322.753906 510.011719 328.269531 511.382812 333.007812 509.328125 C 337.742188 507.28125 340.5 502.300781 339.746094 497.203125 C 339.621094 496.015625 340.152344 495.753906 341.339844 496.40625 C 344.703125 500.074219 349.507812 502.070312 354.476562 501.867188 C 359.449219 501.660156 364.078125 499.277344 367.121094 495.339844 C 368 494.019531 368.796875 493.925781 369.515625 495.070312 C 376.140625 505.476562 384.007812 502.675781 393.121094 486.667969 C 395.835938 489.789062 396.886719 494.984375 394.242188 502.519531 C 393.496094 504.9375 394.570312 506.726562 395.144531 508.996094 C 399.714844 527.070312 388.066406 540.964844 384.953125 556.539062 C 382.167969 570.503906 384.199219 587.675781 391.050781 608.054688 C 400.335938 632.105469 406.21875 654.566406 408.6875 675.449219 Z M 389.175781 675.449219 " fill-opacity="1" fill-rule="evenodd"/></g><g clip-path="url(#f94a47ee32)"><path fill="#fbdac7" d="M 295.351562 675.449219 C 290.597656 653.714844 284.46875 632.746094 278.476562 610.09375 C 274.796875 596.164062 273.929688 584.683594 275.875 575.664062 C 279.90625 556.941406 291.71875 541.242188 283.800781 521.207031 C 279.886719 511.296875 273.296875 508.269531 264.027344 512.121094 C 264.972656 491.304688 247.585938 486.277344 238.210938 504.238281 C 230.160156 484.921875 207.554688 492.214844 213.746094 521.355469 C 200.277344 510.429688 187.242188 523.742188 188.292969 540.488281 C 188.898438 550.140625 192.402344 562.878906 198.804688 578.707031 C 205.351562 592.382812 207.890625 607.421875 206.417969 623.8125 C 204.875 641.105469 201.941406 658.027344 199.296875 675.449219 Z M 295.351562 675.449219 " fill-opacity="1" fill-rule="evenodd"/></g><path fill="#fc9495" d="M 203.425781 526.246094 C 207.023438 526.246094 209.945312 529.714844 209.945312 534 C 209.945312 538.277344 207.023438 541.746094 203.425781 541.746094 C 199.816406 541.746094 196.894531 538.277344 196.894531 534 C 196.894531 529.714844 199.816406 526.246094 203.425781 526.246094 Z M 203.425781 526.246094 " fill-opacity="1" fill-rule="evenodd"/><path fill="#fc9495" d="M 226.390625 499.34375 C 230.515625 499.34375 233.855469 503.421875 233.855469 508.453125 C 233.855469 513.480469 230.515625 517.558594 226.390625 517.558594 C 222.261719 517.558594 218.914062 513.480469 218.914062 508.453125 C 218.914062 503.421875 222.261719 499.34375 226.390625 499.34375 Z M 226.390625 499.34375 " fill-opacity="1" fill-rule="evenodd"/><path fill="#fc9495" d="M 228.125 536.453125 C 228.160156 538.300781 225.097656 537.574219 223.40625 537.945312 C 220.371094 538.613281 217.683594 540.46875 215.972656 543.148438 C 211.890625 549.585938 214.933594 559.394531 222.921875 560.460938 C 225.835938 560.84375 228.730469 559.886719 230.828125 557.894531 C 232.996094 555.828125 232.042969 555.925781 233.363281 558.03125 C 235.035156 560.730469 237.65625 562.097656 241.203125 562.125 C 244.808594 562.152344 247.402344 560.519531 248.988281 557.242188 C 249.707031 555.75 248.53125 555.015625 250.886719 555.898438 C 253.144531 556.75 255.441406 557.007812 257.773438 556.6875 C 260.957031 556.105469 263.730469 554.214844 265.441406 551.46875 C 268.777344 546.117188 267.347656 538.683594 260.957031 536.550781 C 258.242188 535.648438 255.257812 536.054688 252.882812 537.667969 C 252.292969 538.042969 251.929688 538.042969 251.800781 537.667969 C 251.800781 530.84375 246.648438 525.734375 239.753906 525.902344 C 233.785156 526.03125 228.035156 530.472656 228.125 536.453125 Z M 228.125 536.453125 " fill-opacity="1" fill-rule="evenodd"/><g clip-path="url(#a618f4c050)"><path fill="#edc9b4" d="M 272.324219 664.757812 C 273.140625 668.257812 273.921875 671.824219 274.675781 675.449219 L 295.351562 675.449219 C 290.597656 653.714844 284.46875 632.746094 278.476562 610.09375 C 274.796875 596.164062 273.929688 584.683594 275.875 575.664062 C 279.90625 556.9375 291.71875 541.242188 283.800781 521.207031 C 279.886719 511.296875 273.296875 508.269531 264.027344 512.121094 C 264.972656 491.304688 247.585938 486.277344 238.210938 504.238281 C 241.738281 501.523438 254.789062 498.53125 259.136719 517.558594 C 281.066406 513.699219 263.921875 563.679688 260.714844 587.085938 C 257.460938 610.769531 266.933594 641.609375 272.328125 664.757812 Z M 272.324219 664.757812 " fill-opacity="1" fill-rule="evenodd"/></g><path fill="#fc9495" d="M 251.660156 498.53125 C 255.042969 498.53125 257.773438 501.878906 257.773438 506.007812 C 257.773438 510.132812 255.042969 513.480469 251.660156 513.480469 C 248.285156 513.480469 245.546875 510.132812 245.546875 506.007812 C 245.546875 501.878906 248.285156 498.53125 251.660156 498.53125 Z M 251.660156 498.53125 " fill-opacity="1" fill-rule="evenodd"/><path fill="#fc9495" d="M 271.234375 513.75 C 274.304688 513.75 276.800781 516.976562 276.800781 520.949219 C 276.800781 524.929688 274.304688 528.15625 271.234375 528.15625 C 268.15625 528.15625 265.65625 524.929688 265.65625 520.949219 C 265.65625 516.976562 268.15625 513.75 271.234375 513.75 Z M 271.234375 513.75 " fill-opacity="1" fill-rule="evenodd"/><g clip-path="url(#e0bc619e11)"><path fill="#ffd87d" d="M 99.140625 511.234375 C 97.988281 525.355469 103.945312 538.71875 107.648438 551.996094 C 111.179688 564.667969 112.679688 579.894531 112.148438 597.675781 C 110.753906 615.792969 107.554688 641.714844 102.550781 675.449219 L 194.441406 675.449219 C 193.078125 640.402344 190.808594 601.585938 183.894531 568.917969 C 179.359375 547.503906 188.820312 540.992188 190.476562 524.296875 C 191.890625 510.144531 192.117188 482.886719 170.808594 487.992188 C 168.882812 488.816406 168.066406 488.453125 168.355469 486.902344 C 168.363281 477.015625 165.214844 470.996094 158.929688 468.828125 C 151.582031 466.3125 145.816406 469.070312 142.703125 476.257812 C 142.382812 477.246094 142.027344 477.34375 141.609375 476.527344 C 135.597656 463.667969 115.140625 468.375 118.417969 493.996094 C 118.445312 495.910156 117.8125 496.449219 116.511719 495.632812 C 106.054688 486.890625 99.84375 502.535156 99.140625 511.234375 Z M 99.140625 511.234375 " fill-opacity="1" fill-rule="evenodd"/></g><path fill="#fc9495" d="M 133.429688 530.011719 C 132.339844 521.546875 136.15625 512.546875 147.628906 513.1875 C 156.203125 513.664062 158.804688 521.546875 158.527344 528.371094 C 162.8125 526.90625 167.554688 528.414062 170.203125 532.09375 C 172.847656 535.769531 172.777344 540.746094 170.027344 544.347656 C 167.277344 547.945312 162.5 549.324219 158.261719 547.746094 C 156.179688 550.523438 152.925781 552.179688 149.457031 552.230469 C 145.988281 552.28125 142.683594 550.730469 140.523438 548.015625 C 137.125 550.738281 132.363281 550.988281 128.703125 548.632812 C 125.035156 546.273438 123.292969 541.839844 124.367188 537.617188 C 125.433594 533.394531 129.085938 530.332031 133.429688 530.011719 Z M 133.429688 530.011719 " fill-opacity="1" fill-rule="evenodd"/><path fill="#fc9495" d="M 175.855469 496.449219 C 179.84375 496.449219 183.089844 501.027344 183.089844 506.683594 C 183.089844 512.328125 179.84375 516.90625 175.855469 516.90625 C 171.859375 516.90625 168.625 512.328125 168.625 506.683594 C 168.625 501.027344 171.859375 496.449219 175.855469 496.449219 Z M 175.855469 496.449219 " fill-opacity="1" fill-rule="evenodd"/><path fill="#fc9495" d="M 155.121094 477.621094 C 159.109375 477.621094 162.34375 482.199219 162.34375 487.855469 C 162.34375 493.5 159.109375 498.089844 155.121094 498.089844 C 151.121094 498.089844 147.886719 493.5 147.886719 487.855469 C 147.886719 482.199219 151.121094 477.621094 155.121094 477.621094 Z M 155.121094 477.621094 " fill-opacity="1" fill-rule="evenodd"/><path fill="#fc9495" d="M 131.382812 478.714844 C 135.375 478.714844 138.609375 483.292969 138.609375 488.945312 C 138.609375 494.59375 135.375 499.179688 131.382812 499.179688 C 127.386719 499.179688 124.152344 494.59375 124.152344 488.945312 C 124.152344 483.292969 127.386719 478.714844 131.382812 478.714844 Z M 131.382812 478.714844 " fill-opacity="1" fill-rule="evenodd"/><path fill="#fc9495" d="M 115.558594 502.449219 C 119.546875 502.449219 122.789062 507.027344 122.789062 512.683594 C 122.789062 518.328125 119.546875 522.917969 115.558594 522.917969 C 111.570312 522.917969 108.324219 518.328125 108.324219 512.683594 C 108.324219 507.027344 111.570312 502.449219 115.558594 502.449219 Z M 115.558594 502.449219 " fill-opacity="1" fill-rule="evenodd"/><g clip-path="url(#bbf774202d)"><path fill="#efc169" d="M 176.574219 675.449219 L 170.53125 604.492188 C 168.5625 578.628906 171.199219 557.554688 178.441406 541.269531 C 184.519531 527.582031 195.324219 493.882812 174.738281 487.394531 C 192.082031 486.421875 191.796875 511.070312 190.476562 524.296875 C 188.820312 540.992188 179.359375 547.503906 183.894531 568.917969 C 190.808594 601.585938 193.078125 640.402344 194.441406 675.449219 Z M 176.574219 675.449219 " fill-opacity="1" fill-rule="evenodd"/></g><g clip-path="url(#50d762d609)"><path fill="#95572e" d="M 4.875 666.933594 C 2.53125 669.535156 4.421875 674.035156 3.21875 675.449219 L 89.785156 675.449219 C 91.007812 674.746094 96.019531 673.359375 90.410156 671.808594 C 88.273438 671.226562 96.558594 667.296875 90.433594 666.777344 C 86.445312 666.429688 94.527344 664.355469 90.875 662.8125 C 89.351562 662.171875 94.832031 658.945312 87.972656 657.417969 C 86.738281 657.140625 92.265625 652.945312 87.988281 649.96875 C 87.363281 649.535156 90.910156 646.074219 89.507812 646.179688 C 88.128906 646.285156 88.328125 642.953125 88.484375 642.242188 C 88.527344 642.214844 89.351562 639.8125 87.683594 637.992188 C 84.460938 634.453125 88.828125 637.636719 88.222656 634.800781 C 88.214844 634.785156 88.796875 630.308594 87.753906 630.292969 C 87.191406 630.28125 87.511719 629.839844 87.425781 629.226562 C 86.195312 622.71875 91.769531 627.367188 85.871094 622.640625 C 84.703125 621.714844 87.328125 619.425781 85.558594 617.4375 C 84.277344 615.992188 87.988281 616.070312 86.117188 614.550781 C 85.8125 614.308594 85.5 612.675781 85.828125 611.429688 C 86.046875 610.640625 86.957031 610.320312 86.894531 609.574219 C 86.800781 608.480469 85.015625 607.960938 85.03125 607.449219 C 85.058594 606.773438 86.644531 605.992188 86.628906 605.324219 C 86.609375 604.542969 85.015625 604.214844 85.03125 603.46875 C 85.046875 602.453125 86.105469 602.269531 86.097656 601.34375 C 86.089844 600.683594 84.753906 601.144531 84.761719 600.542969 C 84.824219 597.179688 85.855469 595.878906 85.613281 595.785156 C 85.507812 595.75 84.363281 590.570312 86.097656 589.390625 C 86.125 589.367188 87.960938 586.519531 85.03125 585.140625 C 82.828125 571.1875 92.464844 590.9375 85.933594 577.882812 C 83.808594 573.632812 86.949219 576.339844 86.097656 574.777344 C 85.144531 573.042969 86.132812 571.777344 86.359375 568.671875 C 86.410156 568.023438 85.558594 566.28125 86.097656 564.691406 C 87.511719 564.050781 90.546875 561.726562 86.894531 561.242188 C 86.402344 561.171875 87.683594 560.339844 87.683594 558.578125 C 87.683594 555.585938 81.242188 557.582031 87.859375 553.59375 C 91.527344 551.378906 82.515625 551.390625 89.175781 550.054688 C 91.675781 549.550781 85.015625 545.996094 88.222656 545.570312 C 88.273438 545.5625 93.121094 542.777344 88.257812 542.371094 C 86.488281 542.222656 91.1875 540.515625 91.199219 535.988281 C 91.214844 532.464844 94.945312 536.742188 91.136719 531.25 C 91.683594 530.730469 92.28125 530.828125 92.734375 530.167969 C 93.132812 529.585938 93.398438 528.257812 93.53125 527.773438 C 93.6875 527.183594 93.191406 526.992188 93.261719 526.445312 C 93.382812 525.570312 93.710938 524.980469 93.53125 524.0625 C 93.417969 523.453125 93.652344 523.046875 93.398438 522.386719 C 93.210938 521.902344 92.992188 521.398438 92.734375 520.871094 C 92.550781 520.488281 92.933594 520.019531 92.707031 519.613281 C 91.257812 517.011719 90.652344 519.882812 91.933594 516.621094 C 92.429688 515.371094 92.054688 515.179688 91.40625 514.765625 C 90.796875 514.375 90.625 514.046875 90.476562 512.449219 C 90.363281 511.175781 90.164062 512.265625 89.28125 509.976562 C 89.097656 509.507812 88.414062 509.25 88.222656 508.390625 C 88.066406 507.730469 87.425781 507.730469 87.285156 506.761719 C 87.285156 506.726562 86.410156 506.214844 86.097656 505.738281 C 85.777344 505.25 86.003906 504.792969 85.558594 504.402344 C 84.882812 503.804688 84.257812 504.636719 84.09375 503.324219 C 83.070312 502.710938 82.394531 502.300781 81.3125 502.546875 C 80.574219 502.71875 79.800781 502.433594 79.1875 502.546875 C 78.179688 502.726562 77.695312 501.992188 76.800781 502.277344 C 76.21875 502.46875 75.753906 502.085938 75.207031 502.277344 C 74.539062 502.519531 74.121094 501.878906 73.453125 502.164062 C 72.890625 502.40625 73.195312 502.285156 72.550781 502.546875 C 71.972656 502.78125 71.589844 502.113281 70.914062 502.378906 C 69.890625 501.609375 70.003906 502.15625 69.203125 502.832031 C 67.980469 502.710938 70.652344 499.753906 69.316406 499.667969 C 68.457031 499.605469 70.515625 497.765625 68.015625 497.609375 C 67.945312 496.640625 68.347656 496.320312 67.636719 495.980469 C 67.15625 495.753906 67.695312 493.96875 66.464844 493.585938 C 65.292969 490.246094 68 495.382812 65.621094 492.476562 C 65.292969 492.078125 65.875 491.617188 65.050781 491.972656 C 63.542969 490.941406 65.109375 489.648438 63.609375 490.714844 C 63.453125 490.828125 61.269531 489.007812 60.957031 489.164062 C 59.519531 487.949219 60.707031 489.09375 59.804688 487.941406 C 59.371094 487.378906 58.3125 488.84375 57.039062 487.011719 C 55.882812 485.375 55.769531 488.929688 54.402344 486.464844 C 54.382812 486.421875 52.300781 486.691406 52.234375 486.769531 C 50.707031 486.5 52.3125 486.109375 50.488281 486.667969 C 48.988281 487.117188 49.820312 485.253906 49.15625 486.976562 C 48.660156 488.261719 48.277344 484.964844 47.84375 487.210938 C 45.703125 487.464844 47.84375 486.207031 46.796875 487.949219 C 45.242188 488.167969 45.894531 486.875 45.433594 488.148438 C 45.113281 489.035156 44.6875 487.210938 44.617188 488.964844 C 44.609375 489.171875 43.726562 489.078125 43.683594 490.300781 C 43.664062 490.925781 42.832031 490.820312 42.5625 491.113281 C 40.847656 491.382812 40.082031 490.136719 39.015625 490.828125 C 38.125 491.410156 39.734375 489.917969 37.324219 489.980469 C 36.144531 490.003906 38.097656 488.964844 35.21875 490.457031 C 34.609375 490.769531 33.933594 488.6875 32.390625 489.683594 C 31.664062 490.167969 32.3125 487.976562 31.011719 489.414062 C 30.761719 489.355469 30.535156 488.234375 30.058594 489.164062 C 29.617188 490.039062 30.179688 488.078125 28.695312 489.441406 C 28.472656 489.660156 28.070312 488.53125 27.714844 489.554688 C 27.066406 489.675781 26.925781 488.660156 26.667969 490.203125 C 25.175781 490.585938 27.136719 490.671875 25.558594 490.941406 C 25.488281 491.816406 23.363281 492.910156 22.3125 493.34375 C 19.867188 494.351562 22.042969 493.101562 21.5 494.359375 C 21.222656 494.992188 18.542969 494.851562 20.414062 495.953125 C 21.863281 496.796875 15.6875 497.488281 19.730469 498.121094 C 20.554688 498.253906 18.800781 498.523438 19.597656 499.171875 C 20.5625 499.953125 17.371094 500.4375 20.867188 501.945312 C 21.535156 502.234375 18.585938 502.945312 19.816406 503.144531 C 21.097656 503.359375 18.800781 502.9375 18.523438 505.105469 C 18.296875 506.90625 18.054688 505.015625 19.070312 506.472656 C 19.46875 507.046875 17.441406 508.945312 18.929688 509.691406 C 19.417969 509.933594 18.246094 509.996094 19.453125 511.035156 C 20.640625 512.078125 17.386719 514.3125 17.050781 513.167969 C 16.980469 512.933594 14.359375 512.804688 13.433594 514.148438 C 12.070312 516.136719 11.570312 512.769531 10.363281 515.554688 C 10.199219 515.917969 9.445312 515.179688 8.679688 516.863281 C 8.457031 517.339844 8.257812 517.148438 8.011719 517.679688 C 3.199219 519.613281 8.792969 518.519531 5.644531 520.871094 C 5.039062 521.320312 5.195312 522.917969 3.945312 523.707031 C 2.957031 524.339844 5.765625 523.34375 3.207031 525.726562 C 1.386719 527.4375 2.394531 525.910156 2.140625 528.242188 C 2.003906 529.5 3 528.179688 1.890625 530.808594 C 1.527344 531.675781 3.597656 531.21875 2.167969 532.847656 C 1.8125 533.246094 2.515625 533.679688 1.628906 535.40625 C 1.292969 536.054688 2.046875 535.335938 0.996094 537.078125 C 0.015625 538.691406 4.976562 537.816406 3.453125 539.671875 C 1.933594 541.527344 7.128906 541.371094 6.511719 543.21875 C 6.15625 544.3125 6.957031 546.921875 7.632812 547.894531 C 7.542969 548.464844 7.066406 550.574219 7.667969 550.738281 C 8.421875 550.945312 7.371094 551.710938 8.542969 552.203125 C 9.113281 552.4375 8.480469 552.691406 9.816406 553.515625 C 10.988281 554.226562 9.6875 553.886719 10.605469 555.484375 C 11.015625 556.183594 10.070312 556.410156 11.1875 557.042969 C 12.679688 557.894531 11.585938 560.46875 12.332031 561.65625 C 13.15625 562.96875 13.839844 561.621094 13.339844 563.988281 C 14.925781 564.953125 13.285156 565.292969 14.34375 565.898438 C 15.152344 566.359375 15.871094 567.15625 15.375 567.925781 L 15.273438 568.136719 C 13.832031 572.886719 12.773438 569.574219 17.007812 573.6875 C 17.976562 574.632812 14.179688 577.085938 14.898438 578.265625 C 15.261719 578.863281 13.3125 580.988281 14.941406 582.238281 C 15.863281 582.941406 13.902344 583.285156 14.65625 584.007812 C 16.425781 585.707031 9.867188 583.875 15.496094 587.691406 C 16.503906 588.378906 14.996094 587.847656 15.367188 589.644531 C 16.027344 592.773438 13.527344 593.640625 15.027344 594.699219 C 15.964844 595.359375 13.824219 598.59375 13.667969 598.765625 C 10.484375 604.230469 14.648438 603.285156 12.980469 604.507812 C 12.957031 604.527344 11.75 607.613281 11.757812 607.621094 C 12.730469 608.851562 10.199219 608.289062 13.042969 610.378906 C 13.695312 610.855469 8.636719 614.089844 10.847656 614.351562 C 13.492188 618.722656 9.132812 619.816406 10.207031 622.226562 C 10.535156 622.953125 11.679688 621.679688 11.308594 626.449219 C 11.230469 627.367188 10.148438 626.597656 10.535156 628.113281 C 10.667969 628.636719 8.125 630.898438 9.410156 631.628906 C 7.355469 639.527344 13.804688 633.292969 6.503906 639.734375 C 5.871094 640.289062 11.726562 640.066406 6.476562 643.378906 C 5.886719 643.75 9.367188 647.117188 5.964844 650.984375 C 4.753906 652.371094 6.054688 652.96875 5.957031 654.84375 C 5.800781 657.660156 6.460938 655.804688 6.269531 658.519531 C 5.921875 663.402344 4.941406 660.523438 6.425781 664.234375 C 6.652344 664.789062 5.230469 666.464844 4.875 666.933594 Z M 4.875 666.933594 " fill-opacity="1" fill-rule="evenodd"/></g><path fill="#fc9495" d="M 27.671875 552.472656 C 29.105469 555.09375 32.164062 556.367188 35.027344 555.535156 C 37.898438 554.710938 39.804688 551.996094 39.625 549.023438 C 41.226562 551.234375 43.792969 552.542969 46.527344 552.542969 C 49.257812 552.542969 51.824219 551.234375 53.429688 549.023438 C 53.03125 551.363281 53.828125 553.390625 55.824219 555.125 C 58.554688 556.652344 61.894531 556.566406 64.546875 554.910156 C 68.355469 552.523438 68.691406 549.039062 68.632812 545.007812 C 68.535156 538.519531 65.5 535.25 59.535156 535.214844 C 60.394531 530.871094 58.546875 526.4375 54.871094 523.976562 C 51.183594 521.519531 46.378906 521.519531 42.703125 523.976562 C 39.015625 526.4375 37.167969 530.871094 38.027344 535.214844 C 32.453125 535.40625 27.761719 539.414062 26.675781 544.851562 C 26.171875 547.390625 26.492188 550.078125 27.671875 552.472656 Z M 27.671875 552.472656 " fill-opacity="1" fill-rule="evenodd"/><path fill="#fc9495" d="M 75.875 513.4375 C 79.023438 513.4375 81.578125 516.882812 81.578125 521.140625 C 81.578125 525.390625 79.023438 528.839844 75.875 528.839844 C 72.71875 528.839844 70.160156 525.390625 70.160156 521.140625 C 70.160156 516.882812 72.71875 513.4375 75.875 513.4375 Z M 75.875 513.4375 " fill-opacity="1" fill-rule="evenodd"/><path fill="#fc9495" d="M 55.953125 495.902344 C 59.109375 495.902344 61.660156 499.769531 61.660156 504.539062 C 61.660156 509.300781 59.109375 513.167969 55.953125 513.167969 C 52.796875 513.167969 50.246094 509.300781 50.246094 504.539062 C 50.246094 499.769531 52.796875 495.902344 55.953125 495.902344 Z M 55.953125 495.902344 " fill-opacity="1" fill-rule="evenodd"/><path fill="#fc9495" d="M 32.050781 501.21875 C 35.210938 501.21875 37.757812 504.964844 37.757812 509.585938 C 37.757812 514.203125 35.210938 517.949219 32.050781 517.949219 C 28.894531 517.949219 26.347656 514.203125 26.347656 509.585938 C 26.347656 504.964844 28.894531 501.21875 32.050781 501.21875 Z M 32.050781 501.21875 " fill-opacity="1" fill-rule="evenodd"/><path fill="#fc9495" d="M 17.449219 523.523438 C 20.164062 523.523438 22.355469 526.621094 22.355469 530.425781 C 22.355469 534.242188 20.164062 537.339844 17.449219 537.339844 C 14.734375 537.339844 12.53125 534.242188 12.53125 530.425781 C 12.53125 526.621094 14.734375 523.523438 17.449219 523.523438 Z M 17.449219 523.523438 " fill-opacity="1" fill-rule="evenodd"/><g clip-path="url(#ebd8ac3371)"><path fill="#804825" d="M 79.457031 675.449219 C 79.550781 675.386719 79.6875 675.308594 79.878906 675.207031 C 80.945312 674.652344 79.359375 671.796875 79.59375 671.40625 C 81.570312 668.105469 78.605469 670.496094 79.4375 668.605469 C 80.929688 665.234375 78.144531 665.390625 78.910156 665.136719 C 83.566406 663.585938 76.59375 664.183594 78.320312 663.1875 C 79.109375 662.734375 78.988281 659.761719 79.28125 661.53125 C 79.542969 663.054688 79.472656 661.175781 79.273438 660.957031 C 77.875 659.484375 78.519531 658.269531 78.308594 656.335938 C 76.929688 655.675781 76.714844 652.839844 76.757812 652.867188 C 77.753906 652.25 76.089844 649.890625 76.863281 649.449219 C 79.054688 648.183594 76.296875 646.898438 76.488281 646.394531 C 77.035156 644.914062 76.230469 644.019531 76.230469 644.003906 C 79.125 641.359375 75.414062 644.679688 76.308594 642.242188 C 77.269531 639.605469 74.71875 641.339844 75.371094 638.832031 C 77.824219 637.75 75.542969 636.699219 75.5625 636.65625 C 76.929688 634.203125 75.605469 636.585938 74.546875 632.0625 C 74.546875 629.234375 76.308594 631.226562 74.929688 629.769531 C 72.960938 627.699219 74.78125 627.890625 74.953125 627.457031 C 73.460938 625.921875 76.367188 627.578125 74.988281 626.378906 C 74.484375 625.957031 77.574219 624.621094 75.910156 622.839844 C 74.375 621.195312 76.273438 622.320312 75.683594 621.453125 C 74.761719 620.09375 75.855469 620.484375 75.144531 620.128906 C 72.976562 619.035156 74.539062 617.351562 74.539062 617.359375 C 74.539062 614.941406 74.753906 616.328125 74.539062 613.511719 C 77 612.121094 74.242188 611.296875 74.113281 610.414062 C 73.585938 606.875 74.0625 609.347656 74.113281 609.355469 C 76.496094 606.960938 70.851562 609.839844 73.152344 604.457031 C 73.339844 604.402344 74.042969 604.230469 73.523438 603.945312 C 72.109375 603.164062 75.570312 602.574219 74.773438 601.265625 C 73.496094 601.1875 76.1875 599.695312 74.988281 599.121094 C 73.90625 598.601562 76.523438 598.59375 75.875 598.003906 C 74.078125 596.363281 75.527344 599.007812 75.128906 597.265625 C 79.757812 596.683594 73.351562 597.109375 73.929688 596.207031 C 74.339844 595.59375 75.855469 594.160156 75.257812 592.972656 C 73.972656 590.425781 76.707031 590.222656 75.960938 589.191406 C 74.441406 587.09375 77.667969 587.683594 75.863281 586.21875 C 71.207031 582.429688 78.511719 584.5 76.6875 581.414062 C 75.925781 580.113281 78.5 580.703125 78.605469 579.359375 C 77.261719 578.167969 77.964844 579.660156 78.414062 576.121094 C 79.351562 574.042969 77.554688 575.023438 78.277344 574.386719 C 79.878906 572.992188 77.339844 573.851562 78.476562 572.636719 C 80.382812 570.574219 76.878906 571.179688 78.554688 570.042969 C 79.273438 569.550781 78.085938 569.160156 79.265625 568.726562 C 82.847656 567.425781 78.015625 568.714844 78.8125 567.753906 C 80.113281 566.183594 78.519531 567.25 79.203125 566.175781 C 80.878906 563.546875 79.167969 560.972656 80.113281 560.183594 C 81.945312 558.65625 81.136719 558.441406 81.710938 558.179688 C 81.867188 558.101562 82.167969 556.558594 82.167969 556.203125 C 81.554688 555.917969 83.390625 554.148438 83.183594 553.679688 C 82.4375 552.039062 84.390625 552.957031 84.101562 552.167969 C 83.28125 549.890625 84.347656 551.632812 84.503906 548.492188 C 84.554688 548.378906 84.511719 548.199219 84.382812 548.128906 C 82.691406 547.140625 84.738281 547.84375 83.957031 546.367188 C 83.011719 544.589844 84.101562 545.917969 84.613281 544.859375 C 85.699219 542.65625 83.636719 540.453125 84.121094 539.601562 C 87.632812 539.316406 83.644531 538.511719 84.753906 538.085938 C 88.648438 536.601562 83.6875 534.652344 85.777344 533.195312 C 88.363281 531.382812 85.335938 530.808594 86.289062 529.429688 C 88.265625 526.585938 86.0625 527.089844 87.015625 526.351562 C 88.195312 525.457031 86.816406 523.039062 86.914062 522.953125 C 89.28125 520.800781 86.984375 521.902344 87.605469 520.785156 C 89.253906 517.835938 86.246094 518.746094 86.84375 517.984375 C 90.46875 513.34375 83.964844 513.210938 89.28125 509.976562 C 90.164062 512.265625 90.363281 511.175781 90.476562 512.449219 C 90.625 514.046875 90.796875 514.375 91.40625 514.765625 C 92.054688 515.179688 92.429688 515.371094 91.933594 516.621094 C 90.652344 519.882812 91.257812 517.011719 92.707031 519.613281 C 92.933594 520.019531 92.550781 520.488281 92.730469 520.871094 C 92.992188 521.398438 93.210938 521.902344 93.398438 522.386719 C 93.652344 523.046875 93.417969 523.453125 93.53125 524.0625 C 93.710938 524.980469 93.382812 525.570312 93.261719 526.445312 C 93.191406 526.992188 93.6875 527.183594 93.53125 527.773438 C 93.398438 528.257812 93.132812 529.585938 92.730469 530.167969 C 92.28125 530.828125 91.683594 530.730469 91.136719 531.25 C 94.945312 536.742188 91.214844 532.464844 91.199219 535.988281 C 91.1875 540.515625 86.488281 542.222656 88.257812 542.371094 C 93.121094 542.777344 88.273438 545.5625 88.222656 545.570312 C 85.015625 545.996094 91.675781 549.550781 89.175781 550.054688 C 82.515625 551.390625 91.527344 551.378906 87.859375 553.59375 C 81.242188 557.582031 87.683594 555.585938 87.683594 558.578125 C 87.683594 560.339844 86.402344 561.171875 86.894531 561.242188 C 90.546875 561.726562 87.511719 564.050781 86.097656 564.691406 C 85.558594 566.28125 86.410156 568.023438 86.359375 568.671875 C 86.132812 571.777344 85.144531 573.042969 86.097656 574.777344 C 86.949219 576.339844 83.808594 573.632812 85.933594 577.882812 C 92.464844 590.9375 82.828125 571.1875 85.03125 585.140625 C 87.960938 586.519531 86.125 589.367188 86.097656 589.390625 C 84.363281 590.570312 85.507812 595.75 85.613281 595.785156 C 85.855469 595.878906 84.824219 597.179688 84.761719 600.542969 C 84.753906 601.144531 86.089844 600.683594 86.097656 601.34375 C 86.105469 602.269531 85.046875 602.453125 85.03125 603.46875 C 85.015625 604.214844 86.609375 604.542969 86.628906 605.324219 C 86.644531 605.992188 85.058594 606.773438 85.03125 607.449219 C 85.015625 607.960938 86.800781 608.480469 86.894531 609.574219 C 86.957031 610.320312 86.046875 610.640625 85.828125 611.429688 C 85.5 612.675781 85.8125 614.308594 86.117188 614.550781 C 87.988281 616.070312 84.277344 615.992188 85.558594 617.4375 C 87.328125 619.425781 84.703125 621.714844 85.871094 622.640625 C 91.769531 627.367188 86.195312 622.71875 87.425781 629.226562 C 87.511719 629.839844 87.191406 630.28125 87.753906 630.292969 C 88.796875 630.308594 88.214844 634.785156 88.222656 634.800781 C 88.828125 637.636719 84.460938 634.453125 87.683594 637.992188 C 89.351562 639.8125 88.527344 642.214844 88.484375 642.242188 C 88.328125 642.953125 88.128906 646.285156 89.507812 646.179688 C 90.910156 646.074219 87.363281 649.535156 87.988281 649.96875 C 92.265625 652.945312 86.738281 657.140625 87.972656 657.417969 C 94.832031 658.945312 89.351562 662.171875 90.875 662.8125 C 94.527344 664.355469 86.445312 666.429688 90.433594 666.777344 C 96.558594 667.296875 88.273438 671.226562 90.410156 671.808594 C 96.019531 673.359375 91.007812 674.746094 89.785156 675.449219 Z M 79.457031 675.449219 " fill-opacity="1" fill-rule="evenodd"/></g><g clip-path="url(#a579ae5aa5)"><path fill="#e49048" d="M 712.945312 675.449219 C 708.652344 638.398438 702.304688 596 701.421875 561.742188 C 701.265625 555.96875 701.671875 547.453125 703.070312 540.730469 C 703.589844 538.234375 704.246094 535.976562 705.070312 534.207031 C 705.582031 533.089844 706.164062 532.164062 706.816406 531.496094 C 714.265625 522.355469 718.175781 516.230469 717.394531 509.042969 C 716.71875 502.839844 712.042969 498.488281 702.703125 496.023438 C 699.296875 495.128906 699.738281 495.773438 700.164062 492.242188 C 703.632812 463.824219 687.632812 463.546875 666.402344 472.460938 C 664.25 473.363281 664.113281 473.734375 662.058594 472.460938 C 638.832031 457.96875 631.808594 473.234375 631.082031 495.347656 C 630.976562 498.546875 631.175781 497.835938 628.367188 498.84375 C 621.480469 501.304688 615.636719 505.746094 616.136719 513.925781 C 617.90625 525.476562 629.8125 529.101562 631.402344 539.65625 C 633.265625 549.90625 634.039062 557.894531 633.707031 563.609375 L 623.925781 675.449219 Z M 712.945312 675.449219 " fill-opacity="1" fill-rule="evenodd"/></g><path fill="#95572e" d="M 646.292969 480.96875 C 652.242188 479.304688 658.875 484.421875 661.113281 492.40625 C 663.347656 500.386719 660.339844 508.207031 654.390625 509.882812 C 648.441406 511.546875 641.808594 506.429688 639.5625 498.445312 C 637.324219 490.464844 640.332031 482.640625 646.292969 480.96875 Z M 646.292969 480.96875 " fill-opacity="1" fill-rule="evenodd"/><path fill="#95572e" d="M 644.097656 481.941406 C 646.394531 481.125 647.539062 480.71875 647.539062 480.71875 C 646.203125 478.4375 645.070312 477.359375 644.148438 477.507812 C 643.03125 477.679688 643.949219 481.351562 644.097656 481.941406 Z M 644.097656 481.941406 " fill-opacity="1" fill-rule="evenodd"/><path fill="#95572e" d="M 684.230469 478.316406 C 678.28125 476.640625 671.640625 481.757812 669.402344 489.746094 C 667.164062 497.722656 670.175781 505.546875 676.125 507.21875 C 682.082031 508.886719 688.714844 503.769531 690.953125 495.789062 C 693.191406 487.800781 690.179688 479.980469 684.230469 478.316406 Z M 684.230469 478.316406 " fill-opacity="1" fill-rule="evenodd"/><path fill="#95572e" d="M 684.890625 479.136719 C 682.59375 478.332031 681.441406 477.925781 681.441406 477.925781 C 682.785156 475.636719 683.910156 474.566406 684.832031 474.714844 C 685.949219 474.890625 685.03125 478.558594 684.890625 479.136719 Z M 684.890625 479.136719 " fill-opacity="1" fill-rule="evenodd"/><path fill="#95572e" d="M 706.433594 505.3125 C 702.277344 502.582031 695.941406 504.878906 692.261719 510.453125 C 688.59375 516.023438 688.992188 522.761719 693.148438 525.492188 C 697.300781 528.226562 703.640625 525.925781 707.308594 520.359375 C 710.976562 514.78125 710.585938 508.050781 706.433594 505.3125 Z M 706.433594 505.3125 " fill-opacity="1" fill-rule="evenodd"/><path fill="#95572e" d="M 705.75 507.664062 C 703.726562 506.292969 702.722656 505.605469 702.722656 505.605469 C 704.59375 503.734375 705.964844 502.988281 706.816406 503.359375 C 707.855469 503.8125 706.035156 507.132812 705.75 507.664062 Z M 705.75 507.664062 " fill-opacity="1" fill-rule="evenodd"/><path fill="#95572e" d="M 626.605469 507.140625 C 630.757812 504.410156 637.097656 506.707031 640.765625 512.277344 C 644.433594 517.851562 644.046875 524.582031 639.890625 527.324219 C 635.738281 530.054688 629.398438 527.757812 625.730469 522.179688 C 622.0625 516.613281 622.449219 509.875 626.605469 507.140625 Z M 626.605469 507.140625 " fill-opacity="1" fill-rule="evenodd"/><path fill="#95572e" d="M 625.695312 510.195312 C 627.707031 508.824219 628.710938 508.140625 628.710938 508.140625 C 626.839844 506.273438 625.46875 505.519531 624.621094 505.902344 C 623.578125 506.351562 625.398438 509.664062 625.695312 510.195312 Z M 625.695312 510.195312 " fill-opacity="1" fill-rule="evenodd"/><path fill="#95572e" d="M 652.707031 519.136719 C 648.910156 523.941406 645.503906 528.570312 642.464844 533.011719 C 638.910156 538.222656 636.285156 543.792969 638.5625 550.175781 C 641.019531 557.070312 648.363281 555.960938 654.539062 554.546875 C 662.1875 552.8125 672.257812 552.613281 679.972656 554.09375 C 684.40625 554.945312 691.761719 555.804688 695.027344 552.855469 C 698.410156 549.8125 697.542969 543.183594 695.828125 539.308594 C 692.878906 532.613281 687.96875 525.699219 681.109375 518.574219 C 671.050781 508.105469 662.492188 506.726562 652.707031 519.136719 Z M 652.707031 519.136719 " fill-opacity="1" fill-rule="evenodd"/><path fill="#fc9495" d="M 376.992188 345.367188 C 384.199219 340.109375 389.496094 348 392.886719 369.050781 C 414.890625 312.089844 440.230469 341.757812 402.054688 389.386719 C 400.179688 391.726562 395.871094 397.625 392.886719 397.097656 C 390.035156 397.097656 385.941406 389.890625 384.042969 386.429688 C 377.886719 375.207031 366.914062 352.710938 376.992188 345.367188 Z M 376.992188 345.367188 " fill-opacity="1" fill-rule="evenodd"/><path fill="#fc9495" d="M 281.25 373.222656 C 282.921875 380.308594 276.132812 387.972656 260.367188 393.082031 C 265.910156 386.59375 260.808594 380.019531 261.070312 372.847656 C 261.496094 360.984375 272.421875 363.855469 270.746094 375.113281 C 273.644531 371.433594 279.402344 365.46875 281.25 373.222656 Z M 281.25 373.222656 " fill-opacity="1" fill-rule="evenodd"/><path fill="#fc9495" d="M 519.242188 394.859375 C 521.792969 405.585938 511.5 417.226562 487.589844 424.960938 C 495.984375 415.136719 488.257812 405.160156 488.648438 394.285156 C 489.304688 376.300781 505.871094 380.652344 503.328125 397.722656 C 507.71875 392.144531 516.449219 383.109375 519.242188 394.859375 Z M 519.242188 394.859375 " fill-opacity="1" fill-rule="evenodd"/><path fill="#cb183f" d="M 623.421875 362.128906 C 628.269531 358.589844 631.824219 363.898438 634.097656 378.035156 C 648.875 339.78125 665.890625 359.699219 640.253906 391.695312 C 638.996094 393.261719 636.101562 397.21875 634.097656 396.863281 C 632.191406 396.863281 629.433594 392.03125 628.15625 389.699219 C 624.03125 382.171875 616.65625 367.054688 623.421875 362.128906 Z M 623.421875 362.128906 " fill-opacity="1" fill-rule="evenodd"/><path fill="#cb183f" d="M 122.496094 395.199219 C 127.335938 391.667969 130.898438 396.964844 133.171875 411.101562 C 147.949219 372.847656 164.964844 392.777344 139.328125 424.761719 C 138.070312 426.332031 135.175781 430.296875 133.171875 429.9375 C 131.253906 429.9375 128.503906 425.101562 127.230469 422.777344 C 123.09375 415.238281 115.722656 400.132812 122.496094 395.199219 Z M 122.496094 395.199219 " fill-opacity="1" fill-rule="evenodd"/><path fill="#fc9495" d="M 20.683594 383.523438 C 18.046875 394.652344 28.722656 406.707031 53.507812 414.738281 C 44.800781 404.539062 52.8125 394.199219 52.40625 382.933594 C 51.730469 364.28125 34.558594 368.796875 37.195312 386.488281 C 32.640625 380.707031 23.578125 371.332031 20.683594 383.523438 Z M 20.683594 383.523438 " fill-opacity="1" fill-rule="evenodd"/><g clip-path="url(#b7bec5767a)"><path fill="#fbdac7" d="M 1025.265625 651.441406 C 1020.511719 629.707031 1014.378906 608.738281 1008.386719 586.085938 C 1004.710938 572.15625 1003.84375 560.675781 1005.785156 551.65625 C 1009.820312 532.929688 1021.628906 517.234375 1013.710938 497.199219 C 1009.800781 487.289062 1003.210938 484.261719 993.941406 488.109375 C 994.886719 467.296875 977.496094 462.265625 968.121094 480.226562 C 960.074219 460.914062 937.464844 468.207031 943.65625 497.347656 C 930.191406 486.421875 917.15625 499.734375 918.203125 516.480469 C 918.8125 526.132812 922.316406 538.871094 928.714844 554.699219 C 935.261719 568.375 937.804688 583.414062 936.328125 599.804688 C 934.785156 617.097656 931.855469 634.015625 929.210938 651.441406 Z M 1025.265625 651.441406 " fill-opacity="1" fill-rule="evenodd"/></g><path fill="#fc9495" d="M 933.339844 502.238281 C 936.9375 502.238281 939.859375 505.707031 939.859375 509.992188 C 939.859375 514.265625 936.9375 517.738281 933.339844 517.738281 C 929.730469 517.738281 926.808594 514.265625 926.808594 509.992188 C 926.808594 505.707031 929.730469 502.238281 933.339844 502.238281 Z M 933.339844 502.238281 " fill-opacity="1" fill-rule="evenodd"/><path fill="#fc9495" d="M 956.300781 475.335938 C 960.429688 475.335938 963.769531 479.414062 963.769531 484.441406 C 963.769531 489.472656 960.429688 493.550781 956.300781 493.550781 C 952.175781 493.550781 948.828125 489.472656 948.828125 484.441406 C 948.828125 479.414062 952.175781 475.335938 956.300781 475.335938 Z M 956.300781 475.335938 " fill-opacity="1" fill-rule="evenodd"/><path fill="#fc9495" d="M 958.035156 512.445312 C 958.070312 514.292969 955.011719 513.566406 953.320312 513.9375 C 950.285156 514.605469 947.59375 516.460938 945.886719 519.140625 C 941.800781 525.578125 944.847656 535.386719 952.832031 536.453125 C 955.746094 536.832031 958.644531 535.878906 960.742188 533.882812 C 962.910156 531.820312 961.957031 531.917969 963.273438 534.023438 C 964.949219 536.71875 967.566406 538.089844 971.113281 538.117188 C 974.722656 538.144531 977.316406 536.511719 978.902344 533.234375 C 979.621094 531.742188 978.441406 531.003906 980.800781 531.890625 C 983.054688 532.738281 985.355469 533 987.6875 532.679688 C 990.871094 532.097656 993.644531 530.207031 995.351562 527.457031 C 998.691406 522.109375 997.261719 514.675781 990.871094 512.542969 C 988.15625 511.640625 985.171875 512.046875 982.796875 513.660156 C 982.207031 514.035156 981.84375 514.035156 981.710938 513.660156 C 981.710938 506.835938 976.558594 501.726562 969.664062 501.890625 C 963.699219 502.023438 957.949219 506.460938 958.035156 512.445312 Z M 958.035156 512.445312 " fill-opacity="1" fill-rule="evenodd"/><g clip-path="url(#293a828967)"><path fill="#edc9b4" d="M 1002.238281 640.746094 C 1003.054688 644.25 1003.835938 647.816406 1004.589844 651.441406 L 1025.265625 651.441406 C 1020.511719 629.707031 1014.378906 608.738281 1008.386719 586.085938 C 1004.710938 572.15625 1003.84375 560.675781 1005.785156 551.65625 C 1009.820312 532.929688 1021.628906 517.234375 1013.710938 497.199219 C 1009.800781 487.289062 1003.210938 484.261719 993.941406 488.109375 C 994.886719 467.296875 977.496094 462.265625 968.121094 480.226562 C 971.652344 477.511719 984.703125 474.519531 989.046875 493.550781 C 1010.980469 489.691406 993.835938 539.667969 990.625 563.078125 C 987.375 586.761719 996.84375 617.601562 1002.238281 640.746094 Z M 1002.238281 640.746094 " fill-opacity="1" fill-rule="evenodd"/></g><path fill="#fc9495" d="M 981.574219 474.519531 C 984.957031 474.519531 987.6875 477.867188 987.6875 481.996094 C 987.6875 486.125 984.957031 489.472656 981.574219 489.472656 C 978.199219 489.472656 975.460938 486.125 975.460938 481.996094 C 975.460938 477.867188 978.199219 474.519531 981.574219 474.519531 Z M 981.574219 474.519531 " fill-opacity="1" fill-rule="evenodd"/><path fill="#fc9495" d="M 1001.144531 489.742188 C 1004.214844 489.742188 1006.714844 492.96875 1006.714844 496.941406 C 1006.714844 500.921875 1004.214844 504.148438 1001.144531 504.148438 C 998.066406 504.148438 995.570312 500.921875 995.570312 496.941406 C 995.570312 492.96875 998.066406 489.742188 1001.144531 489.742188 Z M 1001.144531 489.742188 " fill-opacity="1" fill-rule="evenodd"/><g clip-path="url(#7643d3f0b4)"><path fill="#ffd87d" d="M 829.054688 487.226562 C 827.902344 501.34375 833.859375 514.710938 837.5625 527.988281 C 841.089844 540.65625 842.589844 555.886719 842.0625 573.664062 C 840.667969 591.78125 837.464844 617.703125 832.460938 651.441406 L 924.351562 651.441406 C 922.992188 616.394531 920.71875 577.578125 913.808594 544.90625 C 909.273438 523.496094 918.734375 516.980469 920.390625 500.289062 C 921.804688 486.132812 922.027344 458.875 900.722656 463.984375 C 898.796875 464.808594 897.980469 464.445312 898.265625 462.890625 C 898.277344 453.003906 895.128906 446.984375 888.839844 444.816406 C 881.496094 442.304688 875.726562 445.0625 872.613281 452.25 C 872.292969 453.238281 871.9375 453.335938 871.523438 452.519531 C 865.511719 439.65625 845.054688 444.367188 848.332031 469.984375 C 848.359375 471.902344 847.726562 472.441406 846.425781 471.625 C 835.964844 462.882812 829.757812 478.527344 829.054688 487.226562 Z M 829.054688 487.226562 " fill-opacity="1" fill-rule="evenodd"/></g><path fill="#fc9495" d="M 863.34375 506.003906 C 862.25 497.539062 866.066406 488.535156 877.539062 489.179688 C 886.117188 489.65625 888.71875 497.539062 888.441406 504.363281 C 892.726562 502.898438 897.46875 504.40625 900.113281 508.085938 C 902.757812 511.761719 902.691406 516.738281 899.941406 520.339844 C 897.191406 523.9375 892.414062 525.316406 888.171875 523.738281 C 886.089844 526.511719 882.839844 528.167969 879.371094 528.222656 C 875.902344 528.273438 872.597656 526.722656 870.4375 524.007812 C 867.039062 526.730469 862.277344 526.980469 858.617188 524.621094 C 854.949219 522.261719 853.207031 517.832031 854.28125 513.609375 C 855.347656 509.386719 859 506.324219 863.34375 506.003906 Z M 863.34375 506.003906 " fill-opacity="1" fill-rule="evenodd"/><path fill="#fc9495" d="M 905.769531 472.441406 C 909.757812 472.441406 913 477.019531 913 482.671875 C 913 488.320312 909.757812 492.898438 905.769531 492.898438 C 901.769531 492.898438 898.535156 488.320312 898.535156 482.671875 C 898.535156 477.019531 901.769531 472.441406 905.769531 472.441406 Z M 905.769531 472.441406 " fill-opacity="1" fill-rule="evenodd"/><path fill="#fc9495" d="M 885.035156 453.613281 C 889.023438 453.613281 892.257812 458.191406 892.257812 463.84375 C 892.257812 469.492188 889.023438 474.078125 885.035156 474.078125 C 881.035156 474.078125 877.800781 469.492188 877.800781 463.84375 C 877.800781 458.191406 881.035156 453.613281 885.035156 453.613281 Z M 885.035156 453.613281 " fill-opacity="1" fill-rule="evenodd"/><path fill="#fc9495" d="M 861.296875 454.703125 C 865.285156 454.703125 868.523438 459.285156 868.523438 464.9375 C 868.523438 470.585938 865.285156 475.171875 861.296875 475.171875 C 857.300781 475.171875 854.066406 470.585938 854.066406 464.9375 C 854.066406 459.285156 857.300781 454.703125 861.296875 454.703125 Z M 861.296875 454.703125 " fill-opacity="1" fill-rule="evenodd"/><path fill="#fc9495" d="M 845.46875 478.441406 C 849.460938 478.441406 852.703125 483.019531 852.703125 488.675781 C 852.703125 494.320312 849.460938 498.910156 845.46875 498.910156 C 841.480469 498.910156 838.238281 494.320312 838.238281 488.675781 C 838.238281 483.019531 841.480469 478.441406 845.46875 478.441406 Z M 845.46875 478.441406 " fill-opacity="1" fill-rule="evenodd"/><g clip-path="url(#05734ab82c)"><path fill="#efc169" d="M 906.488281 651.441406 L 900.445312 580.480469 C 898.476562 554.621094 901.113281 533.546875 908.351562 517.257812 C 914.433594 503.574219 925.238281 469.871094 904.648438 463.386719 C 921.996094 462.414062 921.707031 487.0625 920.390625 500.289062 C 918.734375 516.980469 909.273438 523.496094 913.808594 544.90625 C 920.71875 577.578125 922.992188 616.394531 924.351562 651.441406 Z M 906.488281 651.441406 " fill-opacity="1" fill-rule="evenodd"/></g><g clip-path="url(#d72a620e49)"><path fill="#95572e" d="M 734.785156 642.925781 C 732.445312 645.527344 734.335938 650.027344 733.128906 651.441406 L 819.695312 651.441406 C 820.917969 650.738281 825.933594 649.351562 820.320312 647.796875 C 818.1875 647.21875 826.46875 643.289062 820.347656 642.769531 C 816.359375 642.421875 824.441406 640.347656 820.789062 638.804688 C 819.261719 638.164062 824.742188 634.9375 817.882812 633.410156 C 816.652344 633.132812 822.175781 628.933594 817.902344 625.960938 C 817.277344 625.527344 820.824219 622.066406 819.417969 622.171875 C 818.039062 622.273438 818.238281 618.945312 818.394531 618.234375 C 818.4375 618.207031 819.261719 615.804688 817.597656 613.984375 C 814.371094 610.445312 818.742188 613.628906 818.136719 610.792969 C 818.128906 610.773438 818.707031 606.300781 817.667969 606.28125 C 817.105469 606.273438 817.425781 605.832031 817.335938 605.214844 C 816.105469 598.710938 821.683594 603.359375 815.785156 598.632812 C 814.613281 597.707031 817.242188 595.417969 815.472656 593.429688 C 814.191406 591.980469 817.902344 592.058594 816.027344 590.542969 C 815.726562 590.300781 815.414062 588.667969 815.742188 587.421875 C 815.957031 586.628906 816.871094 586.308594 816.808594 585.5625 C 816.714844 584.472656 814.925781 583.949219 814.945312 583.4375 C 814.96875 582.761719 816.558594 581.980469 816.539062 581.316406 C 816.523438 580.535156 814.925781 580.203125 814.945312 579.457031 C 814.960938 578.445312 816.019531 578.261719 816.011719 577.332031 C 816.003906 576.675781 814.667969 577.132812 814.675781 576.535156 C 814.734375 573.171875 815.769531 571.871094 815.523438 571.773438 C 815.421875 571.738281 814.277344 566.5625 816.011719 565.382812 C 816.035156 565.355469 817.875 562.511719 814.945312 561.132812 C 812.742188 547.179688 822.375 566.925781 815.847656 553.875 C 813.722656 549.625 816.859375 552.332031 816.011719 550.769531 C 815.058594 549.035156 816.046875 547.769531 816.269531 544.664062 C 816.324219 544.015625 815.472656 542.269531 816.011719 540.683594 C 817.425781 540.042969 820.460938 537.71875 816.808594 537.230469 C 816.316406 537.164062 817.597656 536.332031 817.597656 534.570312 C 817.597656 531.578125 811.15625 533.574219 817.769531 529.582031 C 821.441406 527.371094 812.429688 527.378906 819.089844 526.042969 C 821.585938 525.542969 814.925781 521.984375 818.136719 521.5625 C 818.1875 521.550781 823.035156 518.769531 818.171875 518.359375 C 816.402344 518.214844 821.101562 516.503906 821.109375 511.976562 C 821.128906 508.457031 824.855469 512.734375 821.050781 507.242188 C 821.597656 506.722656 822.195312 506.816406 822.644531 506.160156 C 823.042969 505.578125 823.3125 504.25 823.441406 503.765625 C 823.597656 503.175781 823.105469 502.984375 823.175781 502.4375 C 823.296875 501.5625 823.625 500.972656 823.441406 500.054688 C 823.332031 499.445312 823.566406 499.039062 823.3125 498.378906 C 823.121094 497.894531 822.90625 497.390625 822.644531 496.863281 C 822.464844 496.480469 822.84375 496.011719 822.621094 495.605469 C 821.171875 493.003906 820.5625 495.875 821.847656 492.613281 C 822.339844 491.363281 821.96875 491.171875 821.320312 490.757812 C 820.710938 490.367188 820.539062 490.035156 820.390625 488.441406 C 820.277344 487.164062 820.078125 488.257812 819.195312 485.96875 C 819.011719 485.5 818.328125 485.242188 818.136719 484.382812 C 817.980469 483.722656 817.335938 483.722656 817.199219 482.75 C 817.199219 482.71875 816.324219 482.207031 816.011719 481.726562 C 815.691406 481.242188 815.914062 480.78125 815.472656 480.394531 C 814.796875 479.792969 814.171875 480.625 814.007812 479.316406 C 812.984375 478.703125 812.308594 478.292969 811.222656 478.535156 C 810.488281 478.710938 809.714844 478.425781 809.097656 478.535156 C 808.09375 478.71875 807.609375 477.980469 806.714844 478.269531 C 806.132812 478.457031 805.664062 478.078125 805.117188 478.269531 C 804.449219 478.511719 804.035156 477.867188 803.367188 478.15625 C 802.804688 478.398438 803.105469 478.277344 802.464844 478.535156 C 801.882812 478.769531 801.503906 478.101562 800.824219 478.371094 C 799.800781 477.601562 799.914062 478.148438 799.117188 478.824219 C 797.894531 478.703125 800.566406 475.746094 799.230469 475.65625 C 798.371094 475.597656 800.425781 473.757812 797.929688 473.601562 C 797.859375 472.628906 798.257812 472.308594 797.546875 471.972656 C 797.070312 471.746094 797.609375 469.960938 796.378906 469.578125 C 795.207031 466.238281 797.910156 471.375 795.535156 468.46875 C 795.207031 468.070312 795.789062 467.609375 794.964844 467.964844 C 793.453125 466.933594 795.023438 465.640625 793.523438 466.707031 C 793.367188 466.820312 791.183594 465 790.871094 465.15625 C 789.429688 463.941406 790.617188 465.085938 789.714844 463.933594 C 789.28125 463.367188 788.226562 464.835938 786.949219 463.003906 C 785.796875 461.367188 785.683594 464.921875 784.3125 462.457031 C 784.296875 462.414062 782.214844 462.683594 782.144531 462.761719 C 780.621094 462.492188 782.222656 462.101562 780.402344 462.65625 C 778.902344 463.109375 779.734375 461.242188 779.066406 462.96875 C 778.574219 464.253906 778.191406 460.957031 777.757812 463.203125 C 775.617188 463.457031 777.757812 462.199219 776.707031 463.941406 C 775.15625 464.15625 775.804688 462.867188 775.347656 464.140625 C 775.027344 465.023438 774.601562 463.203125 774.53125 464.957031 C 774.523438 465.164062 773.636719 465.070312 773.59375 466.292969 C 773.578125 466.914062 772.746094 466.8125 772.476562 467.105469 C 770.757812 467.375 769.996094 466.125 768.929688 466.820312 C 768.035156 467.402344 769.648438 465.910156 767.238281 465.96875 C 766.058594 465.996094 768.011719 464.957031 765.128906 466.449219 C 764.523438 466.757812 763.847656 464.679688 762.304688 465.675781 C 761.574219 466.160156 762.226562 463.96875 760.925781 465.40625 C 760.671875 465.347656 760.449219 464.226562 759.972656 465.15625 C 759.527344 466.03125 760.09375 464.070312 758.609375 465.433594 C 758.382812 465.648438 757.984375 464.523438 757.628906 465.546875 C 756.980469 465.667969 756.839844 464.652344 756.578125 466.195312 C 755.089844 466.578125 757.046875 466.664062 755.46875 466.933594 C 755.402344 467.808594 753.277344 468.902344 752.226562 469.335938 C 749.78125 470.339844 751.957031 469.09375 751.410156 470.351562 C 751.132812 470.984375 748.453125 470.84375 750.328125 471.945312 C 751.777344 472.785156 745.601562 473.480469 749.640625 474.113281 C 750.464844 474.242188 748.714844 474.511719 749.511719 475.164062 C 750.476562 475.945312 747.285156 476.429688 750.777344 477.9375 C 751.445312 478.226562 748.496094 478.9375 749.730469 479.136719 C 751.011719 479.351562 748.714844 478.925781 748.4375 481.09375 C 748.210938 482.898438 747.96875 481.007812 748.984375 482.464844 C 749.382812 483.039062 747.351562 484.9375 748.84375 485.683594 C 749.328125 485.925781 748.160156 485.988281 749.363281 487.027344 C 750.554688 488.066406 747.300781 490.304688 746.960938 489.160156 C 746.894531 488.925781 744.273438 488.796875 743.347656 490.140625 C 741.984375 492.125 741.480469 488.761719 740.277344 491.546875 C 740.113281 491.910156 739.355469 491.171875 738.59375 492.855469 C 738.367188 493.332031 738.167969 493.140625 737.925781 493.671875 C 733.113281 495.605469 738.707031 494.511719 735.558594 496.863281 C 734.953125 497.3125 735.109375 498.910156 733.859375 499.699219 C 732.871094 500.332031 735.679688 499.332031 733.121094 501.71875 C 731.300781 503.425781 732.304688 501.902344 732.054688 504.234375 C 731.917969 505.492188 732.914062 504.171875 731.804688 506.800781 C 731.4375 507.667969 733.511719 507.207031 732.082031 508.839844 C 731.726562 509.238281 732.429688 509.671875 731.542969 511.398438 C 731.203125 512.046875 731.960938 511.328125 730.910156 513.070312 C 729.929688 514.683594 734.890625 513.808594 733.363281 515.664062 C 731.847656 517.519531 737.042969 517.363281 736.425781 519.210938 C 736.070312 520.304688 736.867188 522.914062 737.542969 523.886719 C 737.457031 524.457031 736.980469 526.566406 737.578125 526.730469 C 738.332031 526.9375 737.285156 527.703125 738.453125 528.195312 C 739.027344 528.429688 738.394531 528.679688 739.730469 529.503906 C 740.902344 530.214844 739.601562 529.878906 740.519531 531.472656 C 740.925781 532.175781 739.980469 532.402344 741.101562 533.035156 C 742.589844 533.882812 741.5 536.460938 742.246094 537.648438 C 743.070312 538.957031 743.753906 537.613281 743.25 539.980469 C 744.835938 540.945312 743.199219 541.28125 744.257812 541.890625 C 745.0625 542.347656 745.78125 543.148438 745.289062 543.917969 L 745.183594 544.125 C 743.746094 548.878906 742.6875 545.566406 746.917969 549.675781 C 747.890625 550.621094 744.09375 553.078125 744.8125 554.257812 C 745.175781 554.855469 743.226562 556.980469 744.855469 558.226562 C 745.773438 558.929688 743.816406 559.277344 744.570312 559.996094 C 746.339844 561.699219 739.78125 559.867188 745.410156 563.683594 C 746.417969 564.367188 744.90625 563.839844 745.28125 565.632812 C 745.9375 568.765625 743.441406 569.632812 744.941406 570.691406 C 745.878906 571.351562 743.738281 574.585938 743.582031 574.757812 C 740.398438 580.222656 744.558594 579.277344 742.894531 580.5 C 742.871094 580.515625 741.664062 583.605469 741.671875 583.613281 C 742.644531 584.84375 740.113281 584.28125 742.957031 586.371094 C 743.605469 586.847656 738.550781 590.082031 740.761719 590.34375 C 743.40625 594.714844 739.042969 595.804688 740.121094 598.21875 C 740.449219 598.945312 741.59375 597.671875 741.222656 602.441406 C 741.144531 603.359375 740.058594 602.589844 740.449219 604.105469 C 740.578125 604.625 738.039062 606.890625 739.320312 607.617188 C 737.265625 615.519531 743.71875 609.285156 736.417969 615.726562 C 735.785156 616.28125 741.636719 616.054688 736.390625 619.371094 C 735.800781 619.742188 739.277344 623.105469 735.878906 626.976562 C 734.664062 628.363281 735.964844 628.960938 735.871094 630.835938 C 735.714844 633.652344 736.375 631.796875 736.183594 634.511719 C 735.835938 639.394531 734.855469 636.515625 736.339844 640.226562 C 736.5625 640.78125 735.140625 642.457031 734.785156 642.925781 Z M 734.785156 642.925781 " fill-opacity="1" fill-rule="evenodd"/></g><path fill="#fc9495" d="M 757.585938 528.464844 C 759.015625 531.082031 762.078125 532.359375 764.941406 531.527344 C 767.8125 530.703125 769.71875 527.988281 769.535156 525.011719 C 771.140625 527.222656 773.707031 528.535156 776.441406 528.535156 C 779.171875 528.535156 781.738281 527.222656 783.34375 525.011719 C 782.945312 527.355469 783.742188 529.382812 785.734375 531.117188 C 788.46875 532.644531 791.808594 532.558594 794.460938 530.902344 C 798.265625 528.515625 798.605469 525.03125 798.546875 520.996094 C 798.449219 514.511719 795.414062 511.242188 789.449219 511.207031 C 790.304688 506.859375 788.460938 502.429688 784.78125 499.964844 C 781.097656 497.511719 776.292969 497.511719 772.613281 499.964844 C 768.929688 502.429688 767.082031 506.859375 767.941406 511.207031 C 762.363281 511.398438 757.671875 515.402344 756.589844 520.839844 C 756.085938 523.382812 756.40625 526.070312 757.585938 528.464844 Z M 757.585938 528.464844 " fill-opacity="1" fill-rule="evenodd"/><path fill="#fc9495" d="M 805.785156 489.429688 C 808.933594 489.429688 811.492188 492.871094 811.492188 497.128906 C 811.492188 501.378906 808.933594 504.832031 805.785156 504.832031 C 802.628906 504.832031 800.070312 501.378906 800.070312 497.128906 C 800.070312 492.871094 802.628906 489.429688 805.785156 489.429688 Z M 805.785156 489.429688 " fill-opacity="1" fill-rule="evenodd"/><path fill="#fc9495" d="M 785.867188 471.894531 C 789.023438 471.894531 791.574219 475.761719 791.574219 480.53125 C 791.574219 485.292969 789.023438 489.160156 785.867188 489.160156 C 782.710938 489.160156 780.160156 485.292969 780.160156 480.53125 C 780.160156 475.761719 782.710938 471.894531 785.867188 471.894531 Z M 785.867188 471.894531 " fill-opacity="1" fill-rule="evenodd"/><path fill="#fc9495" d="M 761.964844 477.210938 C 765.121094 477.210938 767.671875 480.957031 767.671875 485.578125 C 767.671875 490.191406 765.121094 493.9375 761.964844 493.9375 C 758.808594 493.9375 756.257812 490.191406 756.257812 485.578125 C 756.257812 480.957031 758.808594 477.210938 761.964844 477.210938 Z M 761.964844 477.210938 " fill-opacity="1" fill-rule="evenodd"/><path fill="#fc9495" d="M 747.363281 499.515625 C 750.074219 499.515625 752.269531 502.613281 752.269531 506.417969 C 752.269531 510.234375 750.074219 513.332031 747.363281 513.332031 C 744.648438 513.332031 742.445312 510.234375 742.445312 506.417969 C 742.445312 502.613281 744.648438 499.515625 747.363281 499.515625 Z M 747.363281 499.515625 " fill-opacity="1" fill-rule="evenodd"/><g clip-path="url(#a407524ae2)"><path fill="#804825" d="M 809.367188 651.441406 C 809.464844 651.378906 809.601562 651.300781 809.792969 651.199219 C 810.859375 650.640625 809.273438 647.789062 809.507812 647.398438 C 811.484375 644.09375 808.519531 646.488281 809.351562 644.597656 C 810.84375 641.222656 808.058594 641.378906 808.820312 641.128906 C 813.480469 639.578125 806.507812 640.175781 808.230469 639.175781 C 809.019531 638.726562 808.898438 635.75 809.195312 637.519531 C 809.453125 639.046875 809.386719 637.164062 809.1875 636.949219 C 807.789062 635.472656 808.429688 634.261719 808.222656 632.328125 C 806.84375 631.667969 806.628906 628.832031 806.671875 628.855469 C 807.667969 628.242188 806.003906 625.882812 806.773438 625.441406 C 808.96875 624.175781 806.210938 622.890625 806.402344 622.386719 C 806.949219 620.90625 806.140625 620.011719 806.140625 619.992188 C 809.039062 617.347656 805.328125 620.671875 806.21875 618.234375 C 807.183594 615.597656 804.632812 617.332031 805.285156 614.824219 C 807.738281 613.742188 805.457031 612.691406 805.472656 612.648438 C 806.84375 610.195312 805.515625 612.578125 804.460938 608.050781 C 804.460938 605.226562 806.21875 607.21875 804.839844 605.761719 C 802.871094 603.691406 804.695312 603.878906 804.867188 603.445312 C 803.375 601.910156 806.28125 603.566406 804.902344 602.371094 C 804.398438 601.945312 807.484375 600.609375 805.820312 598.832031 C 804.285156 597.183594 806.183594 598.3125 805.59375 597.445312 C 804.675781 596.082031 805.769531 596.472656 805.058594 596.117188 C 802.890625 595.027344 804.449219 593.34375 804.449219 593.351562 C 804.449219 590.933594 804.667969 592.320312 804.449219 589.5 C 806.914062 588.113281 804.15625 587.289062 804.027344 586.40625 C 803.496094 582.867188 803.972656 585.339844 804.027344 585.347656 C 806.410156 582.953125 800.765625 585.832031 803.0625 580.449219 C 803.253906 580.394531 803.957031 580.222656 803.4375 579.9375 C 802.023438 579.15625 805.484375 578.566406 804.683594 577.257812 C 803.410156 577.179688 806.097656 575.6875 804.902344 575.113281 C 803.816406 574.59375 806.4375 574.585938 805.785156 573.996094 C 803.992188 572.355469 805.441406 575 805.039062 573.257812 C 809.671875 572.675781 803.261719 573.101562 803.84375 572.199219 C 804.25 571.585938 805.769531 570.152344 805.171875 568.964844 C 803.886719 566.414062 806.617188 566.214844 805.875 565.183594 C 804.355469 563.085938 807.582031 563.675781 805.777344 562.210938 C 801.121094 558.417969 808.421875 560.492188 806.601562 557.40625 C 805.839844 556.105469 808.414062 556.695312 808.519531 555.347656 C 807.175781 554.160156 807.875 555.652344 808.328125 552.113281 C 809.265625 550.03125 807.46875 551.011719 808.1875 550.378906 C 809.792969 548.984375 807.253906 549.84375 808.386719 548.628906 C 810.296875 546.5625 806.792969 547.171875 808.464844 546.035156 C 809.1875 545.539062 807.996094 545.148438 809.175781 544.714844 C 812.757812 543.414062 807.929688 544.707031 808.726562 543.746094 C 810.027344 542.175781 808.429688 543.242188 809.117188 542.167969 C 810.789062 539.539062 809.082031 536.964844 810.027344 536.175781 C 811.855469 534.648438 811.050781 534.429688 811.621094 534.171875 C 811.777344 534.09375 812.082031 532.550781 812.082031 532.195312 C 811.464844 531.90625 813.304688 530.136719 813.097656 529.667969 C 812.351562 528.03125 814.300781 528.949219 814.015625 528.160156 C 813.191406 525.878906 814.257812 527.625 814.414062 524.484375 C 814.46875 524.371094 814.425781 524.1875 814.292969 524.121094 C 812.601562 523.128906 814.648438 523.832031 813.867188 522.359375 C 812.921875 520.582031 814.015625 521.90625 814.527344 520.851562 C 815.613281 518.648438 813.546875 516.445312 814.035156 515.59375 C 817.546875 515.308594 813.558594 514.5 814.667969 514.078125 C 818.5625 512.59375 813.601562 510.640625 815.691406 509.183594 C 818.273438 507.371094 815.246094 506.800781 816.203125 505.421875 C 818.179688 502.578125 815.976562 503.078125 816.929688 502.34375 C 818.109375 501.449219 816.730469 499.03125 816.824219 498.941406 C 819.195312 496.792969 816.894531 497.894531 817.519531 496.773438 C 819.167969 493.828125 816.160156 494.738281 816.757812 493.972656 C 820.382812 489.335938 813.878906 489.203125 819.195312 485.96875 C 820.078125 488.257812 820.277344 487.164062 820.390625 488.441406 C 820.539062 490.035156 820.710938 490.367188 821.320312 490.757812 C 821.96875 491.171875 822.339844 491.363281 821.847656 492.613281 C 820.5625 495.875 821.171875 493.003906 822.621094 495.605469 C 822.84375 496.011719 822.464844 496.480469 822.644531 496.863281 C 822.90625 497.390625 823.121094 497.894531 823.3125 498.378906 C 823.566406 499.039062 823.332031 499.445312 823.441406 500.054688 C 823.625 500.972656 823.296875 501.5625 823.175781 502.4375 C 823.105469 502.984375 823.597656 503.175781 823.441406 503.765625 C 823.3125 504.25 823.042969 505.578125 822.644531 506.160156 C 822.195312 506.816406 821.597656 506.722656 821.050781 507.242188 C 824.855469 512.734375 821.128906 508.457031 821.109375 511.976562 C 821.101562 516.503906 816.402344 518.214844 818.171875 518.359375 C 823.035156 518.769531 818.1875 521.550781 818.136719 521.5625 C 814.925781 521.984375 821.585938 525.542969 819.089844 526.042969 C 812.429688 527.378906 821.441406 527.371094 817.769531 529.582031 C 811.15625 533.574219 817.597656 531.578125 817.597656 534.570312 C 817.597656 536.332031 816.316406 537.164062 816.808594 537.230469 C 820.460938 537.71875 817.425781 540.042969 816.011719 540.683594 C 815.472656 542.269531 816.324219 544.015625 816.269531 544.664062 C 816.046875 547.769531 815.058594 549.035156 816.011719 550.769531 C 816.859375 552.332031 813.722656 549.625 815.847656 553.875 C 822.375 566.925781 812.742188 547.179688 814.945312 561.132812 C 817.875 562.511719 816.035156 565.355469 816.011719 565.382812 C 814.277344 566.5625 815.421875 571.738281 815.523438 571.773438 C 815.769531 571.871094 814.734375 573.171875 814.675781 576.535156 C 814.667969 577.132812 816.003906 576.675781 816.011719 577.332031 C 816.019531 578.261719 814.960938 578.445312 814.945312 579.457031 C 814.925781 580.203125 816.523438 580.535156 816.539062 581.316406 C 816.558594 581.980469 814.96875 582.761719 814.945312 583.4375 C 814.925781 583.949219 816.714844 584.472656 816.808594 585.5625 C 816.871094 586.308594 815.957031 586.632812 815.742188 587.421875 C 815.414062 588.667969 815.726562 590.300781 816.027344 590.542969 C 817.902344 592.058594 814.191406 591.980469 815.472656 593.429688 C 817.242188 595.417969 814.613281 597.707031 815.785156 598.632812 C 821.683594 603.359375 816.105469 598.710938 817.335938 605.214844 C 817.425781 605.832031 817.105469 606.273438 817.667969 606.28125 C 818.707031 606.300781 818.128906 610.773438 818.136719 610.792969 C 818.742188 613.628906 814.371094 610.445312 817.597656 613.984375 C 819.261719 615.804688 818.4375 618.207031 818.394531 618.234375 C 818.238281 618.945312 818.039062 622.273438 819.417969 622.171875 C 820.824219 622.066406 817.277344 625.527344 817.902344 625.960938 C 822.175781 628.933594 816.652344 633.132812 817.882812 633.410156 C 824.742188 634.9375 819.261719 638.164062 820.789062 638.804688 C 824.441406 640.347656 816.359375 642.421875 820.347656 642.769531 C 826.46875 643.289062 818.1875 647.21875 820.320312 647.796875 C 825.933594 649.351562 820.917969 650.738281 819.695312 651.441406 Z M 809.367188 651.441406 " fill-opacity="1" fill-rule="evenodd"/></g><path fill="#fc9495" d="M 1011.164062 349.210938 C 1012.835938 356.296875 1006.046875 363.964844 990.28125 369.074219 C 995.820312 362.585938 990.722656 356.011719 990.980469 348.839844 C 991.40625 336.976562 1002.335938 339.847656 1000.660156 351.101562 C 1003.558594 347.425781 1009.316406 341.460938 1011.164062 349.210938 Z M 1011.164062 349.210938 " fill-opacity="1" fill-rule="evenodd"/><path fill="#cb183f" d="M 852.410156 371.1875 C 857.246094 367.660156 860.8125 372.957031 863.085938 387.09375 C 877.863281 348.839844 894.875 368.769531 869.242188 400.753906 C 867.984375 402.324219 865.085938 406.285156 863.085938 405.929688 C 861.167969 405.929688 858.417969 401.089844 857.144531 398.765625 C 853.007812 391.230469 845.636719 376.125 852.410156 371.1875 Z M 852.410156 371.1875 " fill-opacity="1" fill-rule="evenodd"/><path fill="#fc9495" d="M 750.597656 359.515625 C 747.960938 370.640625 758.636719 382.695312 783.421875 390.726562 C 774.714844 380.527344 782.726562 370.191406 782.320312 358.925781 C 781.644531 340.269531 764.472656 344.789062 767.109375 362.480469 C 762.554688 356.695312 753.492188 347.320312 750.597656 359.515625 Z M 750.597656 359.515625 " fill-opacity="1" fill-rule="evenodd"/></svg>