<svg xmlns="http://www.w3.org/2000/svg" xmlns:xlink="http://www.w3.org/1999/xlink" width="512" zoomAndPan="magnify" viewBox="0 0 384 383.999986" height="512" preserveAspectRatio="xMidYMid meet" version="1.0"><defs><clipPath id="14674b5f1a"><path d="M 115.042969 204.195312 L 268.792969 204.195312 L 268.792969 265.695312 L 115.042969 265.695312 Z M 115.042969 204.195312 " clip-rule="nonzero"/></clipPath></defs><g clip-path="url(#14674b5f1a)"><path fill="#f3a444" d="M 115.117188 213.164062 L 115.117188 265.621094 C 115.117188 265.621094 213.5 259.507812 213.511719 259.507812 C 217.898438 259.363281 222.46875 259.59375 226.722656 260.6875 C 229.753906 261.472656 231.796875 262.707031 234.609375 264.066406 C 236.734375 265.089844 240.089844 265.710938 243.484375 265.609375 C 249.367188 265.429688 255.382812 263.085938 255.382812 256.894531 C 255.382812 255.972656 255.242188 255.054688 255.003906 254.152344 C 255.820312 254.210938 256.652344 254.214844 257.496094 254.160156 C 262.855469 253.796875 267.371094 250.019531 268.476562 244.984375 C 268.636719 244.273438 268.71875 243.539062 268.71875 242.804688 C 268.71875 239.816406 267.425781 236.980469 265.21875 234.890625 C 267.359375 232.679688 268.527344 229.6875 268.347656 226.375 C 268.097656 221.613281 264.675781 217.621094 259.835938 216.441406 C 258.238281 216.050781 256.664062 215.894531 255.128906 215.949219 C 255.175781 215.539062 255.234375 215.136719 255.234375 214.722656 C 255.234375 214.164062 255.1875 213.597656 255.101562 213.046875 C 254.394531 208.625 250.496094 206.339844 246.527344 205.273438 C 242.53125 204.195312 239.5 205.511719 236.0625 207.480469 C 233.316406 209.050781 230.28125 209.839844 227.269531 210.6875 C 218.96875 213.03125 211.328125 212.988281 202.960938 213.214844 C 193.832031 213.460938 184.605469 213.269531 175.472656 213.167969 C 164.242188 213.042969 170.371094 213.101562 159.140625 213.148438 C 149.308594 213.191406 139.472656 213.1875 129.636719 213.175781 C 124.898438 213.167969 120.152344 213.144531 115.414062 213.164062 C 115.316406 213.164062 115.214844 213.164062 115.117188 213.164062 Z M 256.613281 242.804688 C 255.964844 242.835938 255.359375 242.789062 254.789062 242.648438 C 254.925781 242.644531 255.0625 242.644531 255.214844 242.648438 L 255.386719 242.652344 L 255.554688 242.644531 C 255.910156 242.632812 256.246094 242.675781 256.613281 242.804688 Z M 256.613281 242.804688 " fill-opacity="1" fill-rule="nonzero"/></g><path fill="#ffd6b3" d="M 245.625 235.316406 C 245.632812 240 243.546875 242.929688 238.96875 244.28125 C 237.40625 244.746094 236.59375 245.523438 236.046875 246.9375 C 234.839844 250.054688 232.660156 252.023438 228.875 251.925781 C 223.3125 251.777344 220.644531 247.449219 223.570312 242.96875 C 226.296875 238.796875 226.542969 234.554688 224.636719 230.101562 C 224.382812 229.503906 224.035156 228.9375 223.703125 228.367188 C 221.164062 224.011719 223.640625 219.855469 228.941406 219.585938 C 232.632812 219.398438 235.019531 220.746094 235.964844 224.183594 C 236.535156 226.246094 237.628906 227.023438 239.667969 227.5625 C 243.734375 228.621094 245.621094 231.300781 245.625 235.316406 Z M 245.625 235.316406 " fill-opacity="1" fill-rule="evenodd"/><path fill="#ffd6b3" d="M 255.347656 236.957031 C 257.003906 236.894531 258.539062 237.289062 259.96875 238.058594 C 262.199219 239.265625 263.394531 241.601562 262.921875 243.757812 C 262.359375 246.316406 260.003906 248.28125 257.113281 248.476562 C 254.988281 248.621094 252.9375 248.253906 251.035156 247.285156 C 248.421875 245.957031 247.449219 244.25 247.824219 241.585938 C 248.109375 239.527344 249.929688 237.851562 252.4375 237.234375 C 253.402344 237 254.367188 236.933594 255.347656 236.957031 Z M 255.347656 236.957031 " fill-opacity="1" fill-rule="evenodd"/><path fill="#ffd6b3" d="M 255.152344 232.976562 C 253.425781 233.148438 251.757812 232.707031 250.203125 231.839844 C 246.609375 229.84375 246.683594 225.503906 250.410156 223.152344 C 252.875 221.589844 255.648438 221.277344 258.484375 221.972656 C 260.964844 222.578125 262.546875 224.460938 262.664062 226.671875 C 262.804688 229.34375 261.359375 231.488281 258.753906 232.472656 C 257.621094 232.898438 256.445312 233.035156 255.152344 232.976562 Z M 255.152344 232.976562 " fill-opacity="1" fill-rule="evenodd"/><path fill="#ffd6b3" d="M 242.71875 209.734375 C 246.585938 209.707031 249.066406 211.375 249.480469 213.945312 C 249.917969 216.683594 247.992188 219.410156 244.898438 220.332031 C 243.492188 220.746094 242.066406 221.019531 240.554688 220.703125 C 238.070312 220.1875 235.972656 218.460938 235.671875 216.5625 C 235.335938 214.472656 236.644531 212.046875 238.777344 210.832031 C 240.140625 210.058594 241.640625 209.777344 242.71875 209.734375 Z M 242.71875 209.734375 " fill-opacity="1" fill-rule="evenodd"/><path fill="#ffd6b3" d="M 242.433594 250.609375 C 245.039062 250.820312 247.8125 251.691406 249.195312 254.722656 C 250.511719 257.613281 249.109375 260.519531 245.960938 261.417969 C 243.144531 262.21875 240.515625 261.550781 238.191406 260.023438 C 235.953125 258.546875 235.226562 256.375 235.953125 254.269531 C 236.722656 252.046875 239.042969 250.609375 242.433594 250.609375 Z M 242.433594 250.609375 " fill-opacity="1" fill-rule="evenodd"/><path fill="#d88435" d="M 202.960938 213.214844 C 202.449219 222.070312 201.855469 230.925781 201.453125 239.789062 C 201.386719 241.222656 201.320312 242.652344 201.222656 244.085938 C 201.109375 245.820312 201.484375 247.410156 200.59375 248.957031 C 200.265625 249.519531 198.074219 251.507812 198.203125 252.089844 C 198.199219 252.078125 189.578125 213.214844 189.578125 213.214844 Z M 202.960938 213.214844 " fill-opacity="1" fill-rule="nonzero"/><path fill="#d88435" d="M 187.871094 261.105469 C 185.828125 253.648438 183.734375 246.210938 181.757812 238.738281 C 180.945312 235.664062 180.386719 232.230469 179.15625 229.304688 C 178.457031 227.644531 176.714844 226.941406 175.265625 226.039062 L 175.265625 261.753906 Z M 187.871094 261.105469 " fill-opacity="1" fill-rule="nonzero"/><path fill="#d88435" d="M 165.035156 213.113281 C 164.839844 216.472656 164.707031 219.839844 164.46875 223.195312 C 164.136719 227.964844 164.53125 232.828125 163.449219 237.523438 C 163 239.457031 162.234375 241.292969 161.550781 243.152344 C 161.257812 243.957031 160.082031 245.890625 160.222656 246.761719 L 154.824219 213.113281 Z M 165.035156 213.113281 " fill-opacity="1" fill-rule="nonzero"/><path fill="#d88435" d="M 154.824219 263.152344 C 154.824219 263.152344 143.785156 226.300781 143.707031 226.039062 C 143.769531 226.238281 141.488281 227.5625 141.246094 227.785156 C 140.4375 228.527344 140.179688 228.933594 140.238281 230.113281 C 140.777344 240.515625 141.5625 250.90625 142.21875 261.300781 C 142.226562 261.40625 142.359375 263.921875 142.386719 263.921875 Z M 154.824219 263.152344 " fill-opacity="1" fill-rule="nonzero"/><path fill="#d88435" d="M 133.078125 213.214844 L 127.402344 241.207031 L 125.984375 242.730469 L 124.769531 213.214844 Z M 133.078125 213.214844 " fill-opacity="1" fill-rule="nonzero"/></svg>